SplineFontDB: 3.0
FontName: Oxygen-Sans-Bold
FullName: Oxygen Sans Bold
FamilyName: Oxygen-Sans
Weight: Medium
ItalicAngle: 0
UnderlinePosition: 0
UnderlineWidth: 0
Ascent: 1638
Descent: 410
UFOAscent: 1805
UFODescent: -511
LayerCount: 2
Layer: 0 0 "Back"  1
Layer: 1 0 "Fore"  0
OS2Version: 0
OS2_WeightWidthSlopeOnly: 0
OS2_UseTypoMetrics: 0
CreationTime: 1378751825
ModificationTime: 1378751825
PfmFamily: 0
TTFWeight: 700
TTFWidth: 5
LineGap: 0
VLineGap: 0
OS2TypoAscent: 2356
OS2TypoAOffset: 0
OS2TypoDescent: -664
OS2TypoDOffset: 0
OS2TypoLinegap: 0
OS2WinAscent: 2356
OS2WinAOffset: 0
OS2WinDescent: 664
OS2WinDOffset: 0
HheadAscent: 2356
HheadAOffset: 0
HheadDescent: -664
HheadDOffset: 0
OS2SubXSize: -1703
OS2SubYSize: 0
OS2SubXOff: 0
OS2SubYOff: 0
OS2SupXSize: 0
OS2SupYSize: 0
OS2SupXOff: 0
OS2SupYOff: 0
OS2StrikeYSize: 0
OS2StrikeYPos: 0
OS2Vendor: 'newt'
Lookup: 258 0 0 "'kern' Horizontal Kerning in Latin lookup 0"  {"'kern' Horizontal Kerning in Latin lookup 0 subtable"  } ['kern' ('latn' <'dflt' > ) ]
DEI: 91125
LangName: 1033 "" "" "" "0.4;newt;Oxygen Sans Bold" "" "0.4" 
Encoding: UnicodeBmp
Compacted: 1
UnicodeInterp: none
NameList: AGL For New Fonts
DisplaySize: -48
AntiAlias: 1
FitToEm: 1
WinInfo: 0 25 11
BeginPrivate: 4
BlueValues 24 [-18 11 711 729 928 962]
OtherBlues 11 [-307 -115]
StemSnapH 36 [14 111 126 129 134 139 141 153 161]
StemSnapV 29 [133 162 172 172 177 179 202]
EndPrivate
BeginChars: 65539 590

StartChar: .notdef
Encoding: 65536 -1 0
Width: 1012
VWidth: 0
Flags: W
HStem: 359 95 625 95
VStem: 94 94 753 94
LayerCount: 2
Fore
SplineSet
209 -162 m 1
 841 -162 l 1
 841 1236 l 1
 209 1236 l 1
 209 -162 l 1
105 -267 m 1
 105 1341 l 1
 945 1341 l 1
 945 -267 l 1
 105 -267 l 1
EndSplineSet
EndChar

StartChar: A
Encoding: 65 65 1
Width: 1365
VWidth: 0
GlyphClass: 2
Flags: W
LayerCount: 2
Fore
SplineSet
28 0 m 1
 273 0 l 1
 439 488 l 1
 354 424 l 1
 1011 424 l 1
 924 484 l 1
 1097 0 l 1
 1337 0 l 1
 828 1460 l 1
 537 1460 l 1
 28 0 l 1
449 521 m 1
 708 1329 l 1
 660 1329 l 1
 913 522 l 1
 961 594 l 1
 404 594 l 1
 449 521 l 1
EndSplineSet
EndChar

StartChar: AE
Encoding: 198 198 2
Width: 1719
VWidth: 0
Flags: W
LayerCount: 2
Fore
SplineSet
13 0 m 1
 254 0 l 1
 462 488 l 1
 319 424 l 1
 921 424 l 1
 921 1460 l 1
 641 1460 l 1
 13 0 l 1
472 521 m 1
 849 1449 l 1
 823 1449 l 1
 823 522 l 1
 871 594 l 1
 369 594 l 1
 472 521 l 1
773 0 m 1
 1635 0 l 1
 1643 191 l 1
 943 191 l 1
 1013 122 l 1
 1013 738 l 1
 942 667 l 1
 1573 667 l 1
 1573 854 l 1
 943 854 l 1
 1013 785 l 1
 1013 1342 l 1
 943 1274 l 1
 1616 1274 l 1
 1626 1460 l 1
 773 1460 l 1
 773 0 l 1
EndSplineSet
EndChar

StartChar: B
Encoding: 66 66 14
Width: 1333
VWidth: 0
GlyphClass: 2
Flags: W
LayerCount: 2
Fore
SplineSet
148 0 m 1
 714 0 l 2
 1050 0 1236 159 1236 427 c 0
 1236 650 1098 762 897 806 c 1
 897 748 l 1
 1108 815 1191 931 1191 1098 c 0
 1191 1361 1003 1460 642 1460 c 2
 148 1460 l 1
 148 0 l 1
329 180 m 1
 388 118 l 1
 388 750 l 1
 329 684 l 1
 652 684 l 2
 888 684 998 618 998 438 c 0
 998 265 899 180 680 180 c 2
 329 180 l 1
328 854 m 1
 388 801 l 1
 388 1335 l 1
 329 1276 l 1
 621 1276 l 2
 845 1276 950 1233 950 1064 c 0
 950 903 851 854 675 854 c 2
 328 854 l 1
EndSplineSet
EndChar

StartChar: C
Encoding: 67 67 15
Width: 1288
VWidth: 0
GlyphClass: 2
Flags: W
LayerCount: 2
Fore
SplineSet
815 -20 m 0
 994 -20 1110 22 1219 79 c 1
 1168 268 l 1
 1098 235 993 180 835 180 c 0
 514 180 350 378 350 729 c 0
 350 1103 584 1280 831 1280 c 0
 944 1280 1056 1244 1146 1192 c 1
 1219 1372 l 1
 1112 1439 978 1480 817 1480 c 0
 417 1480 96 1194 96 734 c 0
 96 241 400 -20 815 -20 c 0
EndSplineSet
EndChar

StartChar: D
Encoding: 68 68 22
Width: 1486
VWidth: 0
GlyphClass: 2
Flags: W
HStem: 0 96 1382 96
VStem: 1306 124
LayerCount: 2
Fore
SplineSet
388 108 m 1
 388 1340 l 1
 322 1276 l 1
 578 1276 l 2
 936 1276 1138 1113 1138 731 c 0
 1138 382 954 180 606 180 c 2
 322 180 l 1
 388 108 l 1
148 0 m 1
 602 0 l 2
 1075 0 1390 260 1390 736 c 0
 1390 1233 1052 1460 575 1460 c 2
 148 1460 l 1
 148 0 l 1
EndSplineSet
EndChar

StartChar: Dcroat
Encoding: 272 272 24
Width: 1509
VWidth: 0
GlyphClass: 2
Flags: W
LayerCount: 2
Fore
SplineSet
62 703 m 1
 62 794 l 1
 586 794 l 1
 586 703 l 1
 62 703 l 1
EndSplineSet
Refer: 22 68 N 1 0 0 1 0 0 2
EndChar

StartChar: Delta
Encoding: 916 916 25
Width: 1291
VWidth: 0
GlyphClass: 2
Flags: W
LayerCount: 2
Fore
SplineSet
44 0 m 1
 568 1474 l 1
 775 1474 l 1
 1299 0 l 1
 44 0 l 1
310 176 m 1
 1038 176 l 1
 671 1250 l 1
 310 176 l 1
EndSplineSet
EndChar

StartChar: E
Encoding: 69 69 26
Width: 1161
VWidth: 0
GlyphClass: 2
Flags: W
LayerCount: 2
Fore
SplineSet
148 0 m 1
 1077 0 l 1
 1085 191 l 1
 318 191 l 1
 388 122 l 1
 388 738 l 1
 317 667 l 1
 1015 667 l 1
 1015 854 l 1
 318 854 l 1
 388 785 l 1
 388 1342 l 1
 318 1274 l 1
 1058 1274 l 1
 1068 1460 l 1
 148 1460 l 1
 148 0 l 1
EndSplineSet
EndChar

StartChar: Eng
Encoding: 330 330 35
Width: 1322
VWidth: 0
GlyphClass: 2
Flags: W
LayerCount: 2
Fore
SplineSet
813 -325 m 0
 796 -325 749 -324 667 -316 c 1
 646 -122 l 1
 737 -128 778 -129 791 -129 c 0
 1016 -129 1041 -64 1041 159 c 2
 1041 957 l 2
 1041 1202 973 1288 786 1288 c 0
 619 1288 453 1195 364 1052 c 1
 364 0 l 1
 128 0 l 1
 127 1456 l 1
 339 1456 l 1
 360 1272 l 1
 502 1423 682 1479 844 1479 c 0
 1131 1479 1278 1291 1278 965 c 2
 1278 158 l 2
 1278 -150 1175 -325 813 -325 c 0
EndSplineSet
EndChar

StartChar: Eth
Encoding: 208 208 38
Width: 1512
VWidth: 0
GlyphClass: 2
Flags: W
LayerCount: 2
Fore
SplineSet
674 817 m 1
 36 817 l 1
 36 661 l 1
 674 661 l 1
 674 817 l 1
EndSplineSet
Refer: 22 68 N 1 0 0 1 0 0 2
EndChar

StartChar: Euro
Encoding: 8364 8364 39
Width: 1288
VWidth: 0
GlyphClass: 2
Flags: W
LayerCount: 2
Fore
SplineSet
861 515 m 1
 864 645 l 1
 293 645 l 1
 293 792 l 1
 864 792 l 1
 868 921 l 1
 -9 921 l 1
 -12 792 l 1
 160 792 l 1
 160 645 l 1
 -12 645 l 1
 -15 515 l 1
 861 515 l 1
EndSplineSet
Refer: 15 67 N 1 0 0 1 0 0 2
EndChar

StartChar: F
Encoding: 70 70 40
Width: 1102
VWidth: 0
GlyphClass: 2
Flags: W
LayerCount: 2
Fore
SplineSet
148 0 m 1
 388 0 l 1
 388 720 l 1
 301 638 l 1
 1004 638 l 1
 1004 822 l 1
 296 822 l 1
 388 753 l 1
 388 1348 l 1
 292 1267 l 1
 1060 1267 l 1
 1071 1460 l 1
 148 1460 l 1
 148 0 l 1
EndSplineSet
EndChar

StartChar: G
Encoding: 71 71 41
Width: 1432
VWidth: 0
GlyphClass: 2
Flags: W
LayerCount: 2
Fore
SplineSet
795 -20 m 0
 993 -20 1152 17 1306 81 c 1
 1306 778 l 1
 766 778 l 1
 757 578 l 1
 1151 578 l 1
 1078 645 l 1
 1078 142 l 1
 1154 256 l 1
 1091 225 1005 180 815 180 c 0
 491 180 350 399 350 732 c 0
 350 1063 543 1280 842 1280 c 0
 996 1280 1104 1234 1212 1179 c 1
 1273 1367 l 1
 1135 1446 1001 1480 826 1480 c 0
 406 1480 96 1187 96 730 c 0
 96 286 354 -20 795 -20 c 0
EndSplineSet
EndChar

StartChar: Gamma
Encoding: 915 915 42
Width: 1233
VWidth: 0
GlyphClass: 2
Flags: W
LayerCount: 2
Fore
SplineSet
234 0 m 1
 234 1478 l 1
 1103 1477 l 1
 1098 1381 l 1
 315 1382 l 1
 358 1421 l 1
 358 0 l 1
 234 0 l 1
EndSplineSet
EndChar

StartChar: H
Encoding: 72 72 48
Width: 1480
VWidth: 0
GlyphClass: 2
Flags: W
LayerCount: 2
Fore
SplineSet
148 0 m 1
 388 0 l 1
 388 724 l 1
 313 655 l 1
 1171 655 l 1
 1092 724 l 1
 1092 0 l 1
 1332 0 l 1
 1332 1460 l 1
 1092 1460 l 1
 1092 773 l 1
 1165 843 l 1
 312 843 l 1
 388 773 l 1
 388 1460 l 1
 148 1460 l 1
 148 0 l 1
EndSplineSet
EndChar

StartChar: Hbar
Encoding: 294 294 49
Width: 1449
VWidth: 0
GlyphClass: 2
Flags: W
LayerCount: 2
Fore
SplineSet
168 0 m 1
 168 1137 l 1
 83 1137 l 1
 83 1262 l 1
 168 1262 l 1
 168 1452 l 1
 389 1452 l 1
 389 1262 l 1
 1115 1262 l 1
 1115 1452 l 1
 1338 1452 l 1
 1338 1262 l 1
 1423 1262 l 1
 1423 1137 l 1
 1338 1137 l 1
 1338 0 l 1
 1115 0 l 1
 1115 662 l 1
 389 662 l 1
 389 0 l 1
 168 0 l 1
389 840 m 1
 1115 840 l 1
 1115 1137 l 1
 389 1137 l 1
 389 840 l 1
EndSplineSet
EndChar

StartChar: I
Encoding: 73 73 51
Width: 844
VWidth: 0
GlyphClass: 2
Flags: W
HStem: 0 88<304 304> 1390 88
VStem: 113 540
LayerCount: 2
Fore
SplineSet
98 1460 m 1
 98 1310 l 1
 373 1310 l 1
 304 1366 l 1
 304 88 l 1
 374 150 l 1
 98 150 l 1
 98 0 l 1
 746 0 l 1
 746 150 l 1
 467 150 l 1
 544 88 l 1
 544 1368 l 1
 468 1310 l 1
 746 1310 l 1
 746 1460 l 1
 98 1460 l 1
EndSplineSet
EndChar

StartChar: J
Encoding: 74 74 62
Width: 798
VWidth: 0
GlyphClass: 2
Flags: W
LayerCount: 2
Fore
SplineSet
153 -209 m 2
 492 -176 650 -91 650 253 c 2
 650 1460 l 1
 410 1460 l 1
 410 258 l 2
 410 59 336 10 144 -15 c 2
 19 -31 l 1
 41 -220 l 1
 153 -209 l 2
EndSplineSet
EndChar

StartChar: K
Encoding: 75 75 64
Width: 1316
VWidth: 0
GlyphClass: 2
Flags: W
LayerCount: 2
Fore
SplineSet
148 0 m 1
 388 0 l 1
 388 621 l 1
 335 493 l 1
 580 737 l 1
 480 737 l 1
 1036 0 l 1
 1324 0 l 1
 659 875 l 1
 659 746 l 1
 1291 1460 l 1
 1007 1460 l 1
 327 706 l 1
 388 697 l 1
 388 1460 l 1
 148 1460 l 1
 148 0 l 1
EndSplineSet
EndChar

StartChar: L
Encoding: 76 76 66
Width: 1097
VWidth: 0
GlyphClass: 2
Flags: W
LayerCount: 2
Fore
SplineSet
148 0 m 1
 1028 0 l 1
 1040 180 l 1
 301 180 l 1
 388 91 l 1
 388 1460 l 1
 148 1460 l 1
 148 0 l 1
EndSplineSet
EndChar

StartChar: Lambda
Encoding: 923 923 68
Width: 1291
VWidth: 0
GlyphClass: 2
Flags: W
LayerCount: 2
Fore
SplineSet
43 0 m 1
 578 1470 l 1
 764 1470 l 1
 1299 0 l 1
 1113 0 l 1
 671 1262 l 1
 234 0 l 1
 43 0 l 1
EndSplineSet
EndChar

StartChar: M
Encoding: 77 77 73
Width: 1811
VWidth: 0
GlyphClass: 2
Flags: W
LayerCount: 2
Fore
SplineSet
144 0 m 1
 369 0 l 1
 381 690 l 1
 385 1201 l 1
 340 1201 l 1
 816 191 l 1
 991 191 l 1
 1477 1201 l 1
 1428 1201 l 1
 1431 693 l 1
 1444 0 l 1
 1667 0 l 1
 1631 1460 l 1
 1385 1460 l 1
 861 367 l 1
 951 367 l 1
 432 1460 l 1
 180 1460 l 1
 144 0 l 1
EndSplineSet
EndChar

StartChar: N
Encoding: 78 78 75
Width: 1526
VWidth: 0
GlyphClass: 2
Flags: W
LayerCount: 2
Fore
SplineSet
148 0 m 1
 376 0 l 1
 376 583 l 1
 358 1222 l 1
 304 1215 l 1
 1106 0 l 1
 1378 0 l 1
 1378 1460 l 1
 1150 1460 l 1
 1150 771 l 1
 1163 230 l 1
 1213 231 l 1
 410 1460 l 1
 148 1460 l 1
 148 0 l 1
EndSplineSet
EndChar

StartChar: O
Encoding: 79 79 80
Width: 1615
VWidth: 0
GlyphClass: 2
Flags: W
HStem: -19 98 1399 98
VStem: 153 124 1418 124
LayerCount: 2
Fore
SplineSet
809 180 m 0
 517 180 350 404 350 723 c 0
 350 1052 523 1280 810 1280 c 0
 1098 1280 1265 1051 1265 723 c 0
 1265 404 1101 180 809 180 c 0
810 -20 m 0
 1244 -20 1519 269 1519 723 c 0
 1519 1187 1237 1480 810 1480 c 0
 379 1480 96 1189 96 724 c 0
 96 267 374 -20 810 -20 c 0
EndSplineSet
EndChar

StartChar: OE
Encoding: 338 338 81
Width: 1968
VWidth: 0
GlyphClass: 2
Flags: W
LayerCount: 2
Fore
SplineSet
807 -21 m 1
 742 -21 764 103 821 285 c 1
 826 415 906 462 1024 462 c 0
 1071 462 1754 446 1772 425 c 1
 1786 605 l 1
 1485 605 l 1
 1481 865 l 1
 1765 865 l 1
 1765 844 l 1
 1468 844 l 1
 1468 1063 l 1
 1784 1063 l 1
 1798 1036 l 1
 1306 1036 l 1
 1303 957 l 1
 1239 998 990 1021 899 1021 c 0
 619 1021 409 831 407 533 c 1
 403 219 548 -21 807 -21 c 1
807 163 m 1
 634 164 586 356 596 552 c 1
 597 744 703 1266 899 1266 c 1
 980 1283 1023 1261 1033 1214 c 1
 928 1214 862 570 858 453 c 1
 812 292 774 165 807 163 c 1
EndSplineSet
EndChar

StartChar: Omega
Encoding: 937 937 90
Width: 1606
VWidth: 0
GlyphClass: 2
Flags: W
LayerCount: 2
Fore
SplineSet
832 196 m 0
 1107 196 1270 413 1270 723 c 0
 1270 1040 1104 1257 832 1257 c 0
 560 1257 391 1041 391 723 c 0
 391 413 557 196 832 196 c 0
832 -20 m 0
 401 -20 118 264 118 725 c 0
 118 1192 405 1474 832 1474 c 0
 1257 1474 1544 1191 1544 725 c 0
 1544 267 1261 -20 832 -20 c 0
EndSplineSet
EndChar

StartChar: Oslash
Encoding: 216 216 91
Width: 1616
VWidth: 0
GlyphClass: 2
Flags: W
LayerCount: 2
Fore
SplineSet
543 -239 m 1
 1276 1635 l 1
 1151 1682 l 1
 424 -197 l 1
 543 -239 l 1
EndSplineSet
Refer: 80 79 N 1 0 0 1 0 0 2
EndChar

StartChar: P
Encoding: 80 80 94
Width: 1258
VWidth: 0
GlyphClass: 2
Flags: W
LayerCount: 2
Fore
SplineSet
148 0 m 1
 388 0 l 1
 388 740 l 1
 321 668 l 1
 671 668 l 2
 1057 668 1196 825 1196 1084 c 0
 1196 1374 974 1460 672 1460 c 2
 148 1460 l 1
 148 0 l 1
664 856 m 2
 323 856 l 1
 388 792 l 1
 388 1343 l 1
 323 1280 l 1
 682 1280 l 2
 859 1280 943 1225 943 1078 c 0
 943 924 889 856 664 856 c 2
EndSplineSet
EndChar

StartChar: Phi
Encoding: 934 934 95
Width: 1570
VWidth: 0
GlyphClass: 2
Flags: W
LayerCount: 2
Fore
SplineSet
722 0 m 1
 722 167 l 1
 318 200 104 442 104 759 c 0
 104 1080 329 1304 722 1335 c 1
 722 1470 l 1
 903 1470 l 1
 903 1335 l 1
 1298 1306 1526 1082 1526 759 c 0
 1526 442 1312 198 903 167 c 1
 903 0 l 1
 722 0 l 1
722 329 m 1
 722 1173 l 1
 439 1145 297 988 297 759 c 0
 297 539 426 360 722 329 c 1
903 329 m 1
 1200 358 1332 537 1332 759 c 0
 1332 986 1191 1146 903 1173 c 1
 903 329 l 1
EndSplineSet
EndChar

StartChar: Pi
Encoding: 928 928 96
Width: 1368
VWidth: 0
GlyphClass: 2
Flags: W
LayerCount: 2
Fore
SplineSet
141 0 m 1
 141 1470 l 1
 1283 1470 l 1
 1283 0 l 1
 1101 0 l 1
 1101 1313 l 1
 323 1313 l 1
 323 0 l 1
 141 0 l 1
EndSplineSet
EndChar

StartChar: Q
Encoding: 81 81 97
Width: 1615
VWidth: 0
GlyphClass: 2
Flags: W
LayerCount: 2
Fore
SplineSet
1231 -434 m 1
 1395 -310 l 1
 1246 -161 1122 6 1048 147 c 1
 844 81 l 1
 926 -100 1103 -318 1231 -434 c 1
EndSplineSet
Refer: 80 79 N 1 0 0 1 0 0 2
EndChar

StartChar: R
Encoding: 82 82 98
Width: 1341
VWidth: 0
GlyphClass: 2
Flags: W
HStem: 736 98 1382 96
VStem: 1144 119
LayerCount: 2
Fore
SplineSet
148 0 m 1
 388 0 l 1
 388 699 l 1
 323 649 l 1
 837 649 l 1
 723 707 l 1
 847 403 l 1
 1013 0 l 1
 1287 0 l 1
 1078 464 l 1
 946 771 l 1
 929 667 l 1
 1101 717 1231 814 1231 1060 c 0
 1231 1362 1040 1460 730 1460 c 2
 148 1460 l 1
 148 0 l 1
388 757 m 1
 388 1341 l 1
 325 1280 l 1
 739 1280 l 2
 912 1280 979 1198 979 1056 c 0
 979 891 915 821 720 821 c 2
 321 821 l 1
 388 757 l 1
EndSplineSet
EndChar

StartChar: S
Encoding: 83 83 102
Width: 1203
VWidth: 0
GlyphClass: 2
Flags: W
LayerCount: 2
Fore
SplineSet
1102 390 m 0
 1102 763 861 760 495 922 c 0
 399 965 362 1003 362 1097 c 0
 362 1364 770 1308 979 1192 c 1
 1058 1379 l 1
 915 1450 758 1480 614 1480 c 0
 347 1480 126 1371 126 1079 c 0
 126 748 351 729 665 593 c 0
 816 528 861 495 861 384 c 0
 861 92 411 131 157 324 c 1
 157 90 l 1
 470 -96 1102 -83 1102 390 c 0
EndSplineSet
EndChar

StartChar: Sigma
Encoding: 931 931 108
Width: 1087
VWidth: 0
GlyphClass: 2
Flags: W
LayerCount: 2
Fore
SplineSet
142 0 m 1
 142 1448 l 1
 1028 1448 l 1
 1018 1254 l 1
 388 1254 l 1
 388 846 l 1
 976 846 l 1
 976 660 l 1
 388 660 l 1
 388 193 l 1
 1033 193 l 1
 1026 0 l 1
 142 0 l 1
EndSplineSet
EndChar

StartChar: T
Encoding: 84 84 109
Width: 1165
VWidth: 0
GlyphClass: 2
Flags: W
LayerCount: 2
Fore
SplineSet
462 0 m 1
 702 0 l 1
 702 1363 l 1
 640 1280 l 1
 1147 1280 l 1
 1147 1460 l 1
 18 1460 l 1
 18 1280 l 1
 523 1280 l 1
 462 1363 l 1
 462 0 l 1
EndSplineSet
EndChar

StartChar: Thorn
Encoding: 222 222 114
Width: 1150
VWidth: 0
Flags: W
LayerCount: 2
Fore
SplineSet
148 0 m 1
 388 0 l 1
 388 489 l 1
 321 422 l 1
 583 422 l 2
 969 422 1088 569 1088 810 c 0
 1088 1081 886 1162 584 1162 c 2
 148 1162 l 1
 148 0 l 1
576 597 m 2
 323 597 l 1
 388 538 l 1
 388 1052 l 1
 323 994 l 1
 594 994 l 2
 771 994 835 942 835 805 c 0
 835 661 801 597 576 597 c 2
388 1150 m 1
 388 1460 l 1
 148 1460 l 1
 148 1150 l 1
 388 1150 l 1
EndSplineSet
EndChar

StartChar: U
Encoding: 85 85 115
Width: 1438
VWidth: 0
GlyphClass: 2
Flags: W
LayerCount: 2
Fore
SplineSet
717 -20 m 0
 1097 -20 1316 197 1316 526 c 2
 1316 1460 l 1
 1076 1460 l 1
 1076 542 l 2
 1076 305 943 180 717 180 c 0
 490 180 362 304 362 541 c 2
 362 1460 l 1
 122 1460 l 1
 122 528 l 2
 122 193 335 -20 717 -20 c 0
EndSplineSet
EndChar

StartChar: V
Encoding: 86 86 128
Width: 1334
VWidth: 0
GlyphClass: 2
Flags: W
LayerCount: 2
Fore
SplineSet
525 0 m 1
 793 0 l 1
 1304 1460 l 1
 1049 1460 l 1
 768 589 l 1
 634 173 l 1
 702 173 l 1
 573 587 l 1
 290 1460 l 1
 30 1460 l 1
 525 0 l 1
EndSplineSet
EndChar

StartChar: W
Encoding: 87 87 129
Width: 2048
VWidth: 0
GlyphClass: 2
Flags: W
LayerCount: 2
Fore
SplineSet
445 0 m 1
 683 0 l 1
 1051 1199 l 1
 1002 1199 l 1
 1341 0 l 1
 1588 0 l 1
 2014 1460 l 1
 1768 1460 l 1
 1439 255 l 1
 1477 255 l 1
 1141 1442 l 1
 908 1442 l 1
 551 255 l 1
 592 255 l 1
 280 1460 l 1
 34 1460 l 1
 445 0 l 1
EndSplineSet
EndChar

StartChar: X
Encoding: 88 88 134
Width: 1313
VWidth: 0
GlyphClass: 2
Flags: W
LayerCount: 2
Fore
SplineSet
26 0 m 1
 283 0 l 1
 676 574 l 1
 792 714 l 1
 1271 1460 l 1
 1016 1460 l 1
 668 911 l 1
 541 768 l 1
 26 0 l 1
1019 0 m 1
 1292 0 l 1
 330 1460 l 1
 58 1460 l 1
 1019 0 l 1
EndSplineSet
EndChar

StartChar: Y
Encoding: 89 89 135
Width: 1260
VWidth: 0
GlyphClass: 2
Flags: W
LayerCount: 2
Fore
SplineSet
515 0 m 1
 755 0 l 1
 755 672 l 1
 707 477 l 1
 1236 1460 l 1
 983 1460 l 1
 599 716 l 1
 669 716 l 1
 280 1460 l 1
 24 1460 l 1
 570 464 l 1
 515 668 l 1
 515 0 l 1
EndSplineSet
EndChar

StartChar: Z
Encoding: 90 90 140
Width: 1242
VWidth: 0
GlyphClass: 2
Flags: W
LayerCount: 2
Fore
SplineSet
143 0 m 1
 1132 0 l 1
 1140 180 l 1
 345 180 l 1
 379 103 l 1
 1127 1293 l 1
 1124 1460 l 1
 163 1460 l 1
 163 1280 l 1
 936 1280 l 1
 895 1348 l 1
 143 160 l 1
 143 0 l 1
EndSplineSet
EndChar

StartChar: a
Encoding: 97 97 144
Width: 1042
VWidth: 0
GlyphClass: 2
Flags: W
HStem: -15 92 532 82 978 92
VStem: 126 119 838 32 870 86
LayerCount: 2
Fore
SplineSet
299 312 m 0
 299 437 378 475 598 475 c 2
 733 475 l 1
 705 510 l 1
 705 250 l 1
 743 332 l 1
 699 241 586 147 458 147 c 0
 354 147 299 207 299 312 c 0
768 208 m 1
 721 209 l 1
 763 0 l 1
 925 0 l 1
 925 662 l 2
 925 968 729 1076 503 1076 c 0
 384 1076 257 1046 146 999 c 1
 193 838 l 1
 298 880 398 905 481 905 c 0
 615 905 706 840 706 682 c 2
 706 575 l 1
 744 613 l 1
 545 613 l 2
 233 613 88 522 88 292 c 0
 88 85 237 -18 419 -18 c 0
 559 -18 683 60 768 208 c 1
EndSplineSet
EndChar

StartChar: acute
Encoding: 180 180 148
Width: 585
VWidth: 0
GlyphClass: 2
Flags: W
LayerCount: 2
Fore
SplineSet
149 1058 m 1
 287 1058 l 1
 596 1460 l 1
 327 1460 l 1
 149 1058 l 1
EndSplineSet
EndChar

StartChar: ae
Encoding: 230 230 150
Width: 1689
VWidth: 0
GlyphClass: 2
Flags: W
HStem: -14 100 528 84 1003 94
VStem: 129 121 833 119 833 84 1587 100
LayerCount: 2
Fore
SplineSet
418 -20 m 0
 596 -20 777 55 866 144 c 1
 944 40 1101 -18 1274 -18 c 0
 1432 -18 1528 28 1583 64 c 1
 1549 218 l 1
 1483 184 1394 151 1278 151 c 0
 1096 152 960 236 950 469 c 1
 1487 469 1611 593 1611 766 c 0
 1611 926 1521 1077 1235 1077 c 0
 1081 1077 932 998 872 880 c 1
 813 1006 673 1077 508 1077 c 0
 354 1077 225 1040 137 998 c 1
 186 838 l 1
 261 872 368 905 485 905 c 0
 629 905 735 854 735 698 c 2
 735 613 l 1
 605 613 l 2
 281 613 88 549 88 313 c 0
 88 111 223 -20 418 -20 c 0
449 141 m 0
 352 141 295 193 295 305 c 0
 295 415 367 465 598 465 c 2
 739 465 l 1
 742 393 763 316 781 272 c 1
 696 196 555 141 449 141 c 0
952 613 m 1
 975 856 1111 923 1252 923 c 0
 1377 923 1435 877 1435 775 c 0
 1435 662 1320 613 952 613 c 1
EndSplineSet
EndChar

StartChar: ampersand
Encoding: 38 38 154
Width: 1414
VWidth: 0
GlyphClass: 2
Flags: W
HStem: -19 98 1399 98
VStem: 138 123 318 107 935 112
LayerCount: 2
Fore
SplineSet
635 -18 m 0
 813 -18 906 18 1032 111 c 1
 1166 -16 l 1
 1365 61 l 1
 1182 248 l 1
 1248 319 1318 427 1359 513 c 1
 1206 613 l 1
 1170 539 1108 438 1057 381 c 1
 704 771 l 1
 872 859 1031 994 1031 1171 c 0
 1031 1383 846 1476 655 1476 c 0
 447 1476 265 1357 265 1145 c 0
 265 1018 327 902 415 804 c 1
 253 713 129 604 129 392 c 0
 129 116 346 -18 635 -18 c 0
644 156 m 0
 475 156 347 234 347 401 c 0
 347 524 418 613 523 674 c 1
 911 244 l 1
 840 187 757 156 644 156 c 0
599 895 m 1
 515 979 473 1072 473 1162 c 0
 473 1266 555 1319 660 1319 c 0
 763 1319 827 1268 827 1166 c 0
 827 1050 714 954 599 895 c 1
EndSplineSet
EndChar

StartChar: approxequal
Encoding: 8776 8776 156
Width: 1212
VWidth: 0
GlyphClass: 2
Flags: W
LayerCount: 2
Fore
SplineSet
124 551 m 1
 162 694 255 792 409 792 c 0
 498 792 585 754 666 712 c 0
 747 669 809 638 867 638 c 0
 947 638 1004 689 1060 792 c 1
 1156 715 l 1
 1118 580 1018 474 857 474 c 0
 769 474 693 507 589 564 c 1
 524 602 469 628 406 628 c 0
 313 628 259 562 226 470 c 1
 124 551 l 1
123 393 m 1
 162 535 256 634 410 634 c 0
 497 634 581 598 666 553 c 0
 752 507 811 481 866 481 c 0
 946 481 1002 531 1060 634 c 1
 1155 557 l 1
 1117 422 1016 318 857 318 c 0
 767 318 692 349 588 407 c 1
 523 445 468 471 405 471 c 0
 311 471 258 406 226 314 c 1
 123 393 l 1
EndSplineSet
EndChar

StartChar: asciicircum
Encoding: 94 94 159
Width: 1178
VWidth: 0
GlyphClass: 2
Flags: W
LayerCount: 2
Fore
SplineSet
94 545 m 1
 537 1460 l 1
 654 1460 l 1
 1123 545 l 1
 939 545 l 1
 597 1225 l 1
 277 545 l 1
 94 545 l 1
EndSplineSet
EndChar

StartChar: asciitilde
Encoding: 126 126 160
Width: 1181
VWidth: 0
GlyphClass: 2
Flags: W
LayerCount: 2
Fore
SplineSet
183 480 m 1
 114 606 l 1
 162 712 248 799 388 799 c 0
 470 799 544 774 634 734 c 0
 724 695 796 665 852 665 c 0
 929 665 1000 718 1062 805 c 1
 1131 686 l 1
 1081 578 977 492 842 492 c 0
 759 492 687 520 600 559 c 0
 515 598 451 627 381 627 c 0
 295 627 225 558 183 480 c 1
EndSplineSet
EndChar

StartChar: asterisk
Encoding: 42 42 161
Width: 1148
VWidth: 0
GlyphClass: 2
Flags: W
LayerCount: 2
Fore
SplineSet
398 535 m 1
 216 640 l 1
 452 948 l 1
 109 1025 l 1
 167 1223 l 1
 504 1082 l 1
 470 1469 l 1
 678 1469 l 1
 644 1082 l 1
 983 1223 l 1
 1041 1025 l 1
 694 948 l 1
 735 895 890 695 933 640 c 1
 907 623 780 551 754 534 c 1
 571 864 l 1
 398 535 l 1
EndSplineSet
EndChar

StartChar: at
Encoding: 64 64 162
Width: 1880
VWidth: 0
GlyphClass: 2
Flags: W
LayerCount: 2
Fore
SplineSet
921 -151 m 0
 1112 -151 1305 -107 1433 -21 c 1
 1390 95 l 1
 1258 20 1088 -21 924 -21 c 0
 516 -21 288 269 288 634 c 0
 288 1013 546 1355 981 1355 c 0
 1409 1355 1609 1078 1609 780 c 0
 1609 511 1493 374 1376 374 c 0
 1301 374 1251 433 1251 514 c 0
 1251 637 1288 820 1316 1020 c 1
 1230 1063 1091 1091 995 1091 c 0
 711 1091 553 841 553 597 c 0
 553 403 655 252 857 252 c 0
 1036 252 1136 425 1169 550 c 1
 1126 550 l 1
 1139 374 1219 256 1376 256 c 0
 1547 256 1752 430 1752 772 c 0
 1752 1210 1417 1486 988 1486 c 0
 491 1486 128 1126 128 638 c 0
 128 149 452 -151 921 -151 c 0
874 369 m 0
 766 369 710 456 710 594 c 0
 710 791 824 980 1011 980 c 0
 1065 980 1166 961 1205 947 c 1
 1157 1025 l 1
 1155 1006 1109 736 1106 717 c 0
 1074 521 1026 369 874 369 c 0
EndSplineSet
EndChar

StartChar: b
Encoding: 98 98 164
Width: 1178
VWidth: 0
GlyphClass: 2
Flags: W
HStem: -19 92 977 92
VStem: 192 125 192 94 1012 121
LayerCount: 2
Fore
SplineSet
661 -18 m 0
 938 -18 1104 204 1104 534 c 0
 1104 854 948 1076 666 1076 c 0
 506 1076 377 994 316 842 c 1
 348 829 l 1
 352 1103 l 1
 352 1480 l 1
 130 1460 l 1
 130 0 l 1
 317 0 l 1
 343 239 l 1
 299 225 l 1
 355 82 489 -18 661 -18 c 0
616 152 m 0
 455 152 347 273 347 546 c 1
 348 789 450 904 622 904 c 0
 788 904 878 781 878 533 c 0
 878 282 781 152 616 152 c 0
EndSplineSet
EndChar

StartChar: backslash
Encoding: 92 92 165
Width: 894
VWidth: 0
GlyphClass: 2
Flags: W
LayerCount: 2
Fore
SplineSet
623 0 m 1
 115 1460 l 1
 313 1460 l 1
 818 0 l 1
 623 0 l 1
EndSplineSet
EndChar

StartChar: bar
Encoding: 124 124 166
Width: 499
VWidth: 0
GlyphClass: 2
Flags: W
LayerCount: 2
Fore
SplineSet
179 -317 m 1
 179 1480 l 1
 356 1480 l 1
 356 -317 l 1
 179 -317 l 1
EndSplineSet
EndChar

StartChar: braceleft
Encoding: 123 123 167
Width: 738
VWidth: 0
GlyphClass: 2
Flags: W
LayerCount: 2
Fore
SplineSet
664 -269 m 1
 404 -269 283 -182 283 46 c 2
 283 279 l 2
 283 437 253 517 75 518 c 1
 75 703 l 1
 256 704 283 781 283 939 c 2
 283 1201 l 2
 283 1417 416 1499 664 1499 c 1
 664 1323 l 1
 525 1321 493 1277 493 1133 c 2
 493 873 l 1
 492 734 441 660 313 608 c 1
 435 573 493 496 493 354 c 2
 493 93 l 2
 493 -49 523 -94 664 -96 c 1
 664 -269 l 1
EndSplineSet
EndChar

StartChar: braceright
Encoding: 125 125 168
Width: 738
VWidth: 0
GlyphClass: 2
Flags: W
LayerCount: 2
Fore
SplineSet
98 -269 m 1
 98 -96 l 1
 237 -94 268 -52 268 93 c 2
 268 354 l 2
 268 482 321 562 449 613 c 1
 323 656 269 751 268 874 c 1
 268 1133 l 2
 268 1275 239 1322 98 1324 c 1
 98 1499 l 1
 357 1499 477 1412 477 1180 c 2
 477 940 l 2
 477 782 505 707 687 705 c 1
 687 520 l 1
 511 520 477 440 477 281 c 2
 477 25 l 2
 477 -190 350 -269 98 -269 c 1
EndSplineSet
EndChar

StartChar: bracketleft
Encoding: 91 91 169
Width: 735
VWidth: 0
GlyphClass: 2
Flags: W
LayerCount: 2
Fore
SplineSet
205 -175 m 1
 205 1460 l 1
 660 1460 l 1
 660 1298 l 1
 419 1298 l 1
 419 -13 l 1
 660 -13 l 1
 660 -175 l 1
 205 -175 l 1
EndSplineSet
EndChar

StartChar: bracketright
Encoding: 93 93 170
Width: 736
VWidth: 0
GlyphClass: 2
Flags: W
LayerCount: 2
Fore
SplineSet
106 -175 m 1
 106 -13 l 1
 347 -13 l 1
 347 1297 l 1
 106 1297 l 1
 106 1460 l 1
 560 1460 l 1
 560 -175 l 1
 106 -175 l 1
EndSplineSet
EndChar

StartChar: breve
Encoding: 728 728 171
Width: 684
VWidth: 0
GlyphClass: 2
Flags: W
LayerCount: 2
Fore
SplineSet
341 1209 m 0
 490 1209 608 1286 608 1460 c 1
 461 1460 l 1
 461 1380 416 1349 341 1349 c 0
 266 1349 223 1380 223 1460 c 1
 75 1460 l 1
 75 1287 193 1209 341 1209 c 0
EndSplineSet
EndChar

StartChar: brokenbar
Encoding: 166 166 172
Width: 564
VWidth: 0
GlyphClass: 2
Flags: W
LayerCount: 2
Fore
SplineSet
211 -303 m 1
 211 404 l 1
 388 404 l 1
 388 -303 l 1
 211 -303 l 1
211 765 m 1
 211 1470 l 1
 388 1470 l 1
 388 765 l 1
 211 765 l 1
EndSplineSet
EndChar

StartChar: bullet
Encoding: 8226 8226 173
Width: 870
VWidth: 0
GlyphClass: 2
Flags: W
LayerCount: 2
Fore
SplineSet
455 379 m 0
 270 379 122 511 122 709 c 0
 122 908 276 1044 461 1044 c 0
 645 1044 794 913 794 714 c 0
 794 515 640 379 455 379 c 0
EndSplineSet
EndChar

StartChar: c
Encoding: 99 99 174
Width: 954
VWidth: 0
GlyphClass: 2
Flags: W
HStem: -19 92 977 92
VStem: 128 119
LayerCount: 2
Fore
SplineSet
879 61 m 1
 846 218 l 1
 785 183 708 152 623 152 c 0
 394 152 300 291.792565005 300 529 c 0
 300 773 436 904 611 904 c 0
 730 904 808 858 830 844 c 1
 885 998 l 1
 826 1039 726 1076 585 1076 c 0
 296 1076 74 875 74 531 c 0
 74 189 278 -18 583 -18 c 0
 754 -18 843 35 879 61 c 1
EndSplineSet
EndChar

StartChar: caron
Encoding: 711 711 176
Width: 733
VWidth: 0
GlyphClass: 2
Flags: W
LayerCount: 2
Fore
SplineSet
261 1095 m 1
 458 1095 l 1
 690 1460 l 1
 512 1460 l 1
 351 1239 l 1
 208 1460 l 1
 33 1460 l 1
 261 1095 l 1
EndSplineSet
EndChar

StartChar: cedilla
Encoding: 184 184 181
Width: 550
VWidth: 0
GlyphClass: 2
Flags: W
LayerCount: 2
Fore
SplineSet
83 -398 m 1
 269 -398 l 1
 318 1 l 1
 192 1 l 1
 83 -398 l 1
EndSplineSet
EndChar

StartChar: cent
Encoding: 162 162 182
Width: 982
VWidth: 0
GlyphClass: 2
Flags: W
LayerCount: 2
Fore
SplineSet
528 -278 m 1
 614 -278 l 1
 652 53 l 1
 495 53 l 1
 528 -278 l 1
629 1340 m 1
 543 1340 l 1
 505 1009 l 1
 662 1009 l 1
 629 1340 l 1
EndSplineSet
Refer: 174 99 N 1 0 0 1 0 0 2
EndChar

StartChar: circumflex
Encoding: 710 710 183
Width: 735
VWidth: 0
GlyphClass: 2
Flags: W
LayerCount: 2
Fore
SplineSet
41 1072 m 1
 201 1072 l 1
 357 1311 l 1
 521 1072 l 1
 683 1072 l 1
 465 1460 l 1
 263 1460 l 1
 41 1072 l 1
EndSplineSet
EndChar

StartChar: colon
Encoding: 58 58 184
Width: 605
VWidth: 0
GlyphClass: 2
Flags: W
LayerCount: 2
Fore
SplineSet
312 802 m 0
 395 802 448 867 448 938 c 0
 448 1010 395 1076 312 1076 c 0
 228 1076 174 1010 174 938 c 0
 174 866 229 802 312 802 c 0
313 -6 m 0
 396 -6 449 59 449 130 c 0
 449 202 396 268 313 268 c 0
 229 268 175 202 175 130 c 0
 175 58 230 -6 313 -6 c 0
EndSplineSet
EndChar

StartChar: comma
Encoding: 44 44 185
Width: 517
VWidth: 0
GlyphClass: 2
Flags: W
LayerCount: 2
Fore
SplineSet
125 -352 m 1
 276 -352 l 1
 276 -352 410 183 410 196 c 1
 415 246 l 1
 197 246 l 1
 197 214 125 -352 125 -352 c 1
EndSplineSet
EndChar

StartChar: copyright
Encoding: 169 169 186
Width: 1675
VWidth: 0
GlyphClass: 2
Flags: W
LayerCount: 2
Fore
SplineSet
838 247 m 0
 949 247 1051 277 1134 330 c 1
 1088 434 l 1
 1012 387 924 367 848 367 c 0
 652 367 515 513 515 743 c 0
 515 966 651 1116 842 1116 c 0
 915 1116 1008 1094 1080 1046 c 1
 1132 1151 l 1
 1047 1209 945 1237 834 1237 c 0
 568 1237 369 1019 369 740 c 0
 369 453 575 247 838 247 c 0
837 92 m 0
 484 92 191 355 191 747 c 0
 191 1138 484 1397 836 1397 c 0
 1192 1397 1486 1137 1486 746 c 0
 1486 355 1193 92 837 92 c 0
837 -12 m 0
 1239 -12 1607 278 1607 747 c 0
 1607 1215 1238 1502 836 1502 c 0
 437 1502 69 1216 69 747 c 0
 69 278 438 -12 837 -12 c 0
EndSplineSet
EndChar

StartChar: currency
Encoding: 164 164 187
Width: 1152
VWidth: 0
GlyphClass: 2
Flags: W
LayerCount: 2
Fore
SplineSet
1029 227 m 1
 1112 315 l 1
 935 486 l 1
 983 555 1008 634 1008 722 c 0
 1008 808 981 888 934 958 c 1
 1113 1130 l 1
 1029 1218 l 1
 848 1048 l 1
 778 1104 694 1134 600 1134 c 0
 507 1134 420 1102 351 1049 c 1
 174 1218 l 1
 85 1132 l 1
 266 958 l 1
 218 887 192 808 192 722 c 0
 192 635 219 554 266 486 c 1
 86 314 l 1
 174 228 l 1
 350 396 l 1
 420 341 505 312 600 312 c 0
 694 312 779 343 848 397 c 1
 1029 227 l 1
600 438 m 0
 439 438 322 566 322 722 c 0
 322 878 439 1008 600 1008 c 0
 762 1008 880 878 880 722 c 0
 880 566 764 438 600 438 c 0
EndSplineSet
EndChar

StartChar: d
Encoding: 100 100 188
Width: 1183
VWidth: 0
GlyphClass: 2
Flags: W
LayerCount: 2
Fore
SplineSet
528 -18 m 0
 743 -18 844 102 892 267 c 1
 841 267 l 1
 874 0 l 1
 1055 0 l 1
 1055 1480 l 1
 831 1460 l 1
 831 1110 l 1
 842 862 l 1
 879 878 l 1
 818 994 714 1076 527 1076 c 0
 250 1076 74 858 74 537 c 0
 74 199 245 -18 528 -18 c 0
571 152 m 0
 397 152 300 274 300 533 c 0
 300 798 418 904 582 904 c 0
 745 904 840 796 840 518 c 1
 839 275 749 152 571 152 c 0
EndSplineSet
EndChar

StartChar: dagger
Encoding: 8224 8224 189
Width: 896
VWidth: 0
GlyphClass: 2
Flags: W
LayerCount: 2
Fore
SplineSet
380 114 m 1
 540 114 l 1
 540 958 l 1
 853 958 l 1
 853 1112 l 1
 543 1112 l 1
 543 1463 l 1
 380 1463 l 1
 380 1112 l 1
 83 1112 l 1
 83 958 l 1
 380 958 l 1
 380 114 l 1
EndSplineSet
EndChar

StartChar: daggerdbl
Encoding: 8225 8225 190
Width: 934
VWidth: 0
GlyphClass: 2
Flags: W
LayerCount: 2
Fore
SplineSet
825 399 m 1
 825 539 l 1
 559 539 l 1
 558 951 l 1
 827 951 l 1
 827 1100 l 1
 556 1100 l 1
 556 1459 l 1
 393 1459 l 1
 393 1100 l 1
 123 1100 l 1
 123 951 l 1
 393 951 l 1
 393 539 l 1
 122 539 l 1
 122 399 l 1
 393 399 l 1
 393 21 l 1
 559 21 l 1
 559 399 l 1
 825 399 l 1
EndSplineSet
EndChar

StartChar: dcroat
Encoding: 273 273 192
Width: 1301
VWidth: 0
GlyphClass: 2
Flags: W
LayerCount: 2
Fore
SplineSet
140 1220 m 1
 140 1331 l 1
 645 1331 l 1
 645 1220 l 1
 140 1220 l 1
EndSplineSet
Refer: 188 100 N 1 0 0 1 0 0 2
EndChar

StartChar: degree
Encoding: 176 176 193
Width: 789
VWidth: 0
GlyphClass: 2
Flags: W
LayerCount: 2
Fore
SplineSet
395 1019 m 0
 305 1019 228 1085 228 1191 c 0
 228 1295 306 1360 396 1360 c 0
 484 1360 562 1295 562 1191 c 0
 562 1085 485 1019 395 1019 c 0
395 895 m 0
 580 895 704 1033 704 1192 c 0
 704 1356 576 1482 395 1482 c 0
 214 1482 87 1356 87 1192 c 0
 87 1029 212 895 395 895 c 0
EndSplineSet
EndChar

StartChar: dieresis
Encoding: 168 168 194
Width: 719
VWidth: 0
GlyphClass: 2
Flags: W
LayerCount: 2
Fore
SplineSet
719 1328 m 0
 719 1400 666 1466 583 1466 c 0
 499 1466 445 1400 445 1328 c 0
 445 1256 500 1192 583 1192 c 0
 666 1192 719 1257 719 1328 c 0
138 1192 m 0
 221 1192 274 1257 274 1328 c 0
 274 1400 221 1466 138 1466 c 0
 54 1466 0 1400 0 1328 c 0
 0 1256 55 1192 138 1192 c 0
EndSplineSet
EndChar

StartChar: divide
Encoding: 247 247 195
Width: 1241
VWidth: 0
GlyphClass: 2
Flags: W
LayerCount: 2
Fore
SplineSet
497 25 m 1
 740 25 l 1
 740 273 l 1
 497 273 l 1
 497 25 l 1
108 488 m 1
 1128 488 l 1
 1128 661 l 1
 108 661 l 1
 108 488 l 1
497 869 m 1
 746 869 l 1
 746 1108 l 1
 497 1108 l 1
 497 869 l 1
EndSplineSet
EndChar

StartChar: dollar
Encoding: 36 36 196
Width: 1167
VWidth: 0
Flags: W
LayerCount: 2
Fore
SplineSet
658 1735 m 1
 572 1735 l 1
 534 1404 l 1
 701 1404 l 1
 658 1735 l 1
573 -278 m 1
 659 -278 l 1
 692 53 l 1
 525 53 l 1
 573 -278 l 1
EndSplineSet
Refer: 102 83 N 1 0 0 1 0 0 2
EndChar

StartChar: dotaccent
Encoding: 729 729 197
Width: 435
VWidth: 0
GlyphClass: 2
Flags: W
LayerCount: 2
Fore
SplineSet
126 1255 m 1
 313 1255 l 1
 313 1460 l 1
 126 1460 l 1
 126 1255 l 1
EndSplineSet
EndChar

StartChar: dotlessi
Encoding: 305 305 198
Width: 490
VWidth: 0
GlyphClass: 2
Flags: W
LayerCount: 2
Fore
SplineSet
151 0 m 1
 370 0 l 1
 370 1085 l 1
 151 1085 l 1
 151 0 l 1
EndSplineSet
EndChar

StartChar: e
Encoding: 101 101 199
Width: 1049
VWidth: 0
GlyphClass: 2
Flags: W
HStem: -19 94 977 92
LayerCount: 2
Fore
SplineSet
306 565 m 1
 306 785 414 904 562 904 c 0
 711 904 776 785 776 565 c 1
 821 613 l 1
 249 613 l 1
 306 565 l 1
624 -18 m 0
 756 -18 856 11 936 64 c 1
 902 218 l 1
 842 188 758 151 633 151 c 0
 461 151 302 232 302 507 c 1
 248 462 l 1
 963 462 l 1
 963 462 971 547 971 567 c 0
 971 861 825 1076 558 1076 c 0
 277 1076 76 865 76 528 c 0
 76 168 321 -18 624 -18 c 0
EndSplineSet
EndChar

StartChar: eight
Encoding: 56 56 207
Width: 1217
VWidth: 0
GlyphClass: 2
Flags: W
LayerCount: 2
Fore
SplineSet
611 -20 m 0
 875 -20 1107 114 1107 375 c 0
 1107 557 996 705 842 770 c 1
 977 833 1079 940 1079 1108 c 0
 1079 1350 869 1480 610 1480 c 0
 352 1480 139 1350 139 1108 c 0
 139 937 249 827 385 769 c 1
 223 701 110 563 110 375 c 0
 110 114 347 -20 611 -20 c 0
611 159 m 0
 434 159 342 243 342 394 c 0
 342 552 453 650 611 689 c 1
 769 650 876 549 876 395 c 0
 876 240 792 159 611 159 c 0
611 835 m 1
 449 872 365 965 365 1109 c 0
 365 1233 463 1308 611 1308 c 0
 760 1308 853 1233 853 1109 c 0
 853 965 774 872 611 835 c 1
EndSplineSet
EndChar

StartChar: ellipsis
Encoding: 8230 8230 208
Width: 1476
VWidth: 0
GlyphClass: 2
Flags: W
LayerCount: 2
Fore
SplineSet
249 -12 m 0
 161 -12 116 54 116 119 c 0
 116 184 160 250 249 250 c 0
 338 250 380 184 380 119 c 0
 380 54 338 -12 249 -12 c 0
740 -12 m 0
 652 -12 608 54 608 119 c 0
 608 184 651 250 740 250 c 0
 829 250 872 184 872 119 c 0
 872 54 829 -12 740 -12 c 0
1230 -12 m 0
 1142 -12 1098 54 1098 119 c 0
 1098 184 1141 250 1230 250 c 0
 1319 250 1363 184 1363 119 c 0
 1363 54 1319 -12 1230 -12 c 0
EndSplineSet
EndChar

StartChar: emdash
Encoding: 8212 8212 210
Width: 2133
VWidth: 0
GlyphClass: 2
Flags: W
LayerCount: 2
Fore
SplineSet
69 484 m 1
 2135 484 l 1
 2135 655 l 1
 69 655 l 1
 69 484 l 1
EndSplineSet
EndChar

StartChar: endash
Encoding: 8211 8211 211
Width: 1189
VWidth: 0
GlyphClass: 2
Flags: W
LayerCount: 2
Fore
SplineSet
96 484 m 1
 1141 484 l 1
 1141 655 l 1
 96 655 l 1
 96 484 l 1
EndSplineSet
EndChar

StartChar: eng
Encoding: 331 331 212
Width: 1114
VWidth: 0
GlyphClass: 2
Flags: W
LayerCount: 2
Fore
SplineSet
632 -327 m 1
 700 -327 l 2
 1015 -327 1068 -171 1069 132 c 1
 1069 674 l 2
 1069 954 955 1109 705 1109 c 0
 552 1109 443 1046 361 946 c 1
 338 1085 l 1
 147 1085 l 1
 147 0 l 1
 377 0 l 1
 377 562 l 2
 377 635 380 700 390 754 c 1
 426 857 511 933 653 933 c 0
 804 933 839 834 840 665 c 1
 840 81 l 2
 840 -112 824 -145 665 -145 c 2
 612 -145 l 1
 632 -327 l 1
EndSplineSet
EndChar

StartChar: equal
Encoding: 61 61 214
Width: 1217
VWidth: 0
Flags: W
LayerCount: 2
Fore
SplineSet
143 851 m 1
 1074 851 l 1
 1074 1032 l 1
 143 1032 l 1
 143 851 l 1
143 467 m 1
 1074 467 l 1
 1074 648 l 1
 143 648 l 1
 143 467 l 1
EndSplineSet
EndChar

StartChar: eth
Encoding: 240 240 215
Width: 1169
VWidth: 0
GlyphClass: 2
Flags: W
LayerCount: 2
Fore
SplineSet
599 -22 m 0
 924 -22 1111 173 1111 467 c 1
 1110 607 1073 739 1016 840 c 0
 943 968 839 1088 694 1247 c 1
 918 1334 l 1
 858 1485 l 1
 583 1376 l 1
 455 1502 l 1
 196 1502 l 1
 404 1302 l 1
 210 1225 l 1
 268 1075 l 1
 516 1172 l 1
 616 1074 717 955 764 883 c 1
 717 909 653 941 566 941 c 0
 280 941 83 753 83 471 c 0
 83 194 280 -22 599 -22 c 0
605 152 m 0
 403 152 296 298 296 472 c 0
 296 656 405 782 599 782 c 0
 798 782 910 644 910 473 c 0
 910 279 803 152 605 152 c 0
EndSplineSet
EndChar

StartChar: exclam
Encoding: 33 33 216
Width: 613
VWidth: 0
GlyphClass: 2
Flags: W
LayerCount: 2
Fore
SplineSet
308 -10 m 0
 394 -10 447 57 447 130 c 0
 447 203 394 269 308 269 c 0
 222 269 168 203 168 130 c 0
 168 58 222 -10 308 -10 c 0
263 439 m 1
 361 439 l 1
 419 1298 l 1
 419 1480 l 1
 198 1480 l 1
 198 1298 l 1
 263 439 l 1
EndSplineSet
EndChar

StartChar: f
Encoding: 102 102 218
Width: 718
VWidth: 0
GlyphClass: 2
Flags: W
LayerCount: 2
Fore
SplineSet
199 0 m 1
 423 0 l 1
 423 958 l 1
 381 912 l 1
 671 912 l 1
 671 1058 l 1
 374 1058 l 1
 423 1012 l 1
 423 1120 l 2
 423 1281 477 1303 569 1303 c 0
 612 1303 668 1295 690 1291 c 1
 710 1451 l 1
 661 1461 595 1469 529 1469 c 0
 333 1469 199 1390 199 1103 c 2
 199 1011 l 1
 244 1061 l 1
 35 1039 l 1
 30 912 l 1
 238 912 l 1
 199 962 l 1
 199 0 l 1
EndSplineSet
EndChar

StartChar: five
Encoding: 53 53 219
Width: 1217
VWidth: 0
GlyphClass: 2
Flags: W
LayerCount: 2
Fore
SplineSet
589 -20 m 0
 906 -20 1112 166 1112 462 c 0
 1112 722 945 916 683 916 c 0
 560 916 480 878 437 848 c 1
 467 1280 l 1
 1039 1280 l 1
 1055 1460 l 1
 259 1460 l 1
 217 657 l 1
 388 632 l 1
 452 700 539 736 623 736 c 0
 788 736 877 623 877 463 c 0
 877 282 762 165 565 165 c 0
 418 165 279 245 234 274 c 1
 155 111 l 1
 209 74 394 -20 589 -20 c 0
EndSplineSet
EndChar

StartChar: four
Encoding: 52 52 220
Width: 1217
VWidth: 0
GlyphClass: 2
Flags: W
LayerCount: 2
Fore
SplineSet
742 0 m 1
 966 0 l 1
 966 342 l 1
 1130 342 l 1
 1144 522 l 1
 966 522 l 1
 966 1457 l 1
 700 1457 l 1
 107 520 l 1
 107 342 l 1
 742 342 l 1
 742 0 l 1
337 519 m 1
 742 1195 l 1
 742 519 l 1
 337 519 l 1
EndSplineSet
EndChar

StartChar: fraction
Encoding: 8260 8260 221
Width: 1099
VWidth: 0
GlyphClass: 2
Flags: W
LayerCount: 2
Fore
SplineSet
71 0 m 1
 253 0 l 1
 1082 1484 l 1
 905 1484 l 1
 71 0 l 1
EndSplineSet
EndChar

StartChar: g
Encoding: 103 103 222
Width: 1176
VWidth: 0
GlyphClass: 2
Flags: W
HStem: -424 100 0 93 977 92
VStem: 128 121 972 125 972 36
LayerCount: 2
Fore
SplineSet
564 187 m 0
 363 187 300 347 300 540 c 0
 300 739 373 904 570 904 c 0
 761 904 833 774 833 566 c 2
 833 512 l 1
 832 322 761 187 564 187 c 0
541 -455 m 0
 914 -455 1054 -216 1054 68 c 2
 1054 1058 l 1
 848 1058 l 1
 831 830 l 1
 866 837 l 1
 819 994 701 1076 536 1076 c 0
 261 1076 74 858 74 533 c 0
 74 243 242 17 527 17 c 0
 705 17 848 119 885 316 c 1
 840 323 l 1
 840 292 854 161 854 42 c 0
 854 -123 768 -279 513 -279 c 0
 436 -279 343 -264 233 -232 c 1
 206 -404 l 1
 334 -439 445 -455 541 -455 c 0
EndSplineSet
EndChar

StartChar: germandbls
Encoding: 223 223 227
Width: 1190
VWidth: 0
GlyphClass: 2
Flags: W
LayerCount: 2
Fore
SplineSet
381 0 m 1
 158 0 l 1
 158 1017 l 2
 158 1306 304 1481 604 1481 c 0
 834 1481 1013 1370 1013 1157 c 0
 1013 924 822 854 822 773 c 0
 822 667 1189 607 1189 304 c 0
 1189 101 1057 -20 842 -20 c 0
 732 -20 610 8 507 52 c 1
 562 213 l 1
 610 188 708 156 802 156 c 0
 904 156 964 208 964 307 c 0
 964 502 606 559 606 750 c 0
 606 917 807 970 807 1152 c 0
 807 1247 735 1312 614 1312 c 0
 440 1312 381 1215 381 1016 c 2
 381 0 l 1
EndSplineSet
EndChar

StartChar: grave
Encoding: 96 96 228
Width: 544
VWidth: 0
GlyphClass: 2
Flags: W
LayerCount: 2
Fore
SplineSet
360 1058 m 1
 501 1058 l 1
 316 1460 l 1
 51 1460 l 1
 360 1058 l 1
EndSplineSet
EndChar

StartChar: greater
Encoding: 62 62 229
Width: 1161
VWidth: 0
GlyphClass: 2
Flags: W
LayerCount: 2
Fore
SplineSet
147 166 m 1
 1088 613 l 1
 1088 725 l 1
 148 1212 l 1
 148 1025 l 1
 848 675 l 1
 147 360 l 1
 147 166 l 1
EndSplineSet
EndChar

StartChar: greaterequal
Encoding: 8805 8805 230
Width: 1139
VWidth: 0
GlyphClass: 2
Flags: W
LayerCount: 2
Fore
SplineSet
148 220 m 1
 1053 688 l 1
 1053 792 l 1
 150 1278 l 1
 150 1099 l 1
 847 740 l 1
 148 401 l 1
 148 220 l 1
131 5 m 1
 1064 5 l 1
 1064 155 l 1
 131 155 l 1
 131 5 l 1
EndSplineSet
EndChar

StartChar: guillemotleft
Encoding: 171 171 231
Width: 982
VWidth: 0
GlyphClass: 2
Flags: W
LayerCount: 2
Fore
SplineSet
764 138 m 1
 937 138 l 1
 675 555 l 1
 942 970 l 1
 766 970 l 1
 462 552 l 1
 764 138 l 1
370 138 m 1
 543 138 l 1
 281 555 l 1
 549 970 l 1
 373 970 l 1
 68 552 l 1
 370 138 l 1
EndSplineSet
EndChar

StartChar: guillemotright
Encoding: 187 187 232
Width: 1029
VWidth: 0
GlyphClass: 2
Flags: W
LayerCount: 2
Fore
SplineSet
664 970 m 1
 493 970 l 1
 753 553 l 1
 488 138 l 1
 661 138 l 1
 967 556 l 1
 664 970 l 1
278 970 m 1
 105 970 l 1
 368 553 l 1
 101 138 l 1
 276 138 l 1
 580 556 l 1
 278 970 l 1
EndSplineSet
EndChar

StartChar: guilsinglleft
Encoding: 8249 8249 233
Width: 559
VWidth: 0
GlyphClass: 2
Flags: W
LayerCount: 2
Fore
SplineSet
531 978 m 1
 350 978 l 1
 67 565 l 1
 344 160 l 1
 525 160 l 1
 258 565 l 1
 531 978 l 1
EndSplineSet
EndChar

StartChar: guilsinglright
Encoding: 8250 8250 234
Width: 563
VWidth: 0
GlyphClass: 2
Flags: W
LayerCount: 2
Fore
SplineSet
72 160 m 1
 253 160 l 1
 539 569 l 1
 259 978 l 1
 78 978 l 1
 344 570 l 1
 72 160 l 1
EndSplineSet
EndChar

StartChar: h
Encoding: 104 104 235
Width: 1141
VWidth: 0
GlyphClass: 2
Flags: W
HStem: 977 92
VStem: 192 121 905 121
LayerCount: 2
Fore
SplineSet
128 0 m 1
 350 0 l 1
 350 539 l 2
 350 741 402 904 622 904 c 0
 759 904 807 820 807 640 c 2
 807 0 l 1
 1031 0 l 1
 1031 657 l 2
 1031 938 892 1076 665 1076 c 0
 501 1076 359 981 307 786 c 1
 343 786 l 1
 352 1133 l 1
 352 1480 l 1
 128 1460 l 1
 128 0 l 1
EndSplineSet
EndChar

StartChar: hbar
Encoding: 295 295 236
Width: 1135
VWidth: 0
GlyphClass: 2
Flags: W
LayerCount: 2
Fore
SplineSet
156 0 m 1
 369 0 l 1
 369 736 l 1
 404 833 524 935 670 935 c 0
 828 935 860 840 860 628 c 2
 860 0 l 1
 1071 0 l 1
 1071 657 l 2
 1071 963 943 1108 727 1108 c 0
 578 1108 457 1055 369 959 c 1
 369 1219 l 1
 643 1219 l 1
 643 1352 l 1
 369 1352 l 1
 369 1487 l 1
 156 1467 l 1
 156 1352 l 1
 63 1352 l 1
 63 1219 l 1
 156 1219 l 1
 156 0 l 1
EndSplineSet
EndChar

StartChar: hungarumlaut
Encoding: 733 733 238
Width: 831
VWidth: 0
GlyphClass: 2
Flags: W
LayerCount: 2
Fore
SplineSet
125 1058 m 1
 249 1058 l 1
 539 1460 l 1
 333 1460 l 1
 125 1058 l 1
396 1058 m 1
 520 1058 l 1
 832 1460 l 1
 620 1460 l 1
 396 1058 l 1
EndSplineSet
EndChar

StartChar: hyphen
Encoding: 45 45 239
Width: 813
VWidth: 0
GlyphClass: 2
Flags: W
LayerCount: 2
Fore
SplineSet
116 467 m 1
 697 467 l 1
 697 648 l 1
 116 648 l 1
 116 467 l 1
EndSplineSet
EndChar

StartChar: i
Encoding: 105 105 240
Width: 518
VWidth: 0
GlyphClass: 2
Flags: W
LayerCount: 2
Fore
SplineSet
264 1460 m 0
 345 1460 401 1420 401 1340 c 0
 401 1260 345 1220 264 1220 c 0
 183 1220 126 1260 126 1340 c 0
 126 1420 183 1460 264 1460 c 0
158 0 m 1
 378 0 l 1
 378 1058 l 1
 158 1058 l 1
 158 0 l 1
EndSplineSet
EndChar

StartChar: infinity
Encoding: 8734 8734 248
Width: 1769
VWidth: 0
GlyphClass: 2
Flags: W
LayerCount: 2
Fore
SplineSet
471 252 m 0
 246 252 115 438 115 655 c 0
 115 853 271 1010 467 1010 c 0
 637 1010 763 902 885 740 c 1
 999 897 1125 1010 1298 1010 c 0
 1523 1010 1649 854 1649 638 c 0
 1649 411 1494 252 1296 252 c 0
 1145 252 1021 340 885 521 c 1
 766 364 637 252 471 252 c 0
473 378 m 0
 605 378 720 494 814 632 c 1
 721 778 609 887 466 887 c 0
 319 887 228 771 228 634 c 0
 228 505 326 378 473 378 c 0
1298 378 m 0
 1453 378 1527 503 1527 660 c 0
 1527 783 1430 887 1294 887 c 0
 1156 887 1046 765 957 634 c 1
 1079 467 1172 378 1298 378 c 0
EndSplineSet
EndChar

StartChar: integral
Encoding: 8747 8747 249
Width: 733
VWidth: 0
GlyphClass: 2
Flags: W
LayerCount: 2
Fore
SplineSet
165 -419 m 0
 131 -419 94 -415 52 -406 c 1
 52 -312 l 1
 89 -321 122 -325 150 -325 c 0
 290 -325 309 -213 309 -50 c 2
 309 1137 l 2
 309 1377 373 1499 547 1499 c 0
 582 1499 621 1494 666 1484 c 1
 666 1390 l 1
 629 1400 599 1406 571 1406 c 0
 452 1406 427 1305 427 1146 c 2
 427 -42 l 2
 427 -287 350 -419 165 -419 c 0
EndSplineSet
EndChar

StartChar: j
Encoding: 106 106 252
Width: 567
VWidth: 0
GlyphClass: 2
Flags: W
LayerCount: 2
Fore
SplineSet
318 1460 m 0
 399 1460 455 1420 455 1340 c 0
 455 1260 399 1220 318 1220 c 0
 237 1220 180 1260 180 1340 c 0
 180 1420 237 1460 318 1460 c 0
8 -380 m 1
 69 -375 l 2
 357 -351 424 -279 424 21 c 2
 424 1058 l 1
 204 1058 l 1
 204 10 l 2
 204 -155 169 -187 26 -201 c 2
 -14 -205 l 1
 8 -380 l 1
EndSplineSet
EndChar

StartChar: k
Encoding: 107 107 254
Width: 1069
VWidth: 0
GlyphClass: 2
Flags: W
LayerCount: 2
Fore
SplineSet
128 0 m 1
 350 0 l 1
 350 433 l 1
 296 320 l 1
 492 504 l 1
 420 504 l 1
 820 0 l 1
 1083 0 l 1
 578 627 l 1
 568 525 l 1
 1061 1058 l 1
 786 1058 l 1
 302 526 l 1
 343 526 l 1
 350 783 l 1
 350 1480 l 1
 128 1460 l 1
 128 0 l 1
EndSplineSet
EndChar

StartChar: kgreenlandic
Encoding: 312 312 256
Width: 1069
VWidth: 0
Flags: W
LayerCount: 2
Fore
SplineSet
128 0 m 1
 350 0 l 1
 350 429 l 1
 296 316 l 1
 492 500 l 1
 420 500 l 1
 820 0 l 1
 1083 0 l 1
 578 623 l 1
 568 521 l 1
 1061 1058 l 1
 786 1058 l 1
 302 522 l 1
 343 522 l 1
 350 783 l 1
 350 1058 l 1
 128 1058 l 1
 128 0 l 1
EndSplineSet
EndChar

StartChar: l
Encoding: 108 108 257
Width: 644
VWidth: 0
GlyphClass: 2
Flags: W
HStem: -11 87
VStem: 192 121
LayerCount: 2
Fore
SplineSet
597 -6 m 1
 610 159 l 1
 515 167 l 2
 404 176 360 207 360 309 c 2
 360 1480 l 1
 138 1460 l 1
 138 327 l 2
 138 56 263 -6 525 -6 c 2
 597 -6 l 1
EndSplineSet
EndChar

StartChar: less
Encoding: 60 60 262
Width: 1157
VWidth: 0
GlyphClass: 2
Flags: W
LayerCount: 2
Fore
SplineSet
1046 162 m 1
 1046 162 1046 354 1045 355 c 2
 343 675 l 1
 1047 1022 l 1
 1047 1208 l 1
 107 726 l 1
 107 613 l 1
 1046 162 l 1
EndSplineSet
EndChar

StartChar: lessequal
Encoding: 8804 8804 263
Width: 1141
VWidth: 0
GlyphClass: 2
Flags: W
LayerCount: 2
Fore
SplineSet
1046 276 m 1
 1046 457 l 1
 372 769 l 1
 1046 1098 l 1
 1046 1277 l 1
 144 821 l 1
 144 715 l 1
 1046 276 l 1
125 1 m 1
 1062 1 l 1
 1062 149 l 1
 125 149 l 1
 125 1 l 1
EndSplineSet
EndChar

StartChar: logicalnot
Encoding: 172 172 264
Width: 1174
VWidth: 0
GlyphClass: 2
Flags: W
LayerCount: 2
Fore
SplineSet
905 251 m 1
 1075 251 l 1
 1075 818 l 1
 94 818 l 1
 94 646 l 1
 905 646 l 1
 905 251 l 1
EndSplineSet
EndChar

StartChar: lozenge
Encoding: 9674 9674 265
Width: 1127
VWidth: 0
GlyphClass: 2
Flags: W
LayerCount: 2
Fore
SplineSet
523 -46 m 1
 642 -46 l 1
 1076 735 l 1
 651 1518 l 1
 530 1518 l 1
 99 734 l 1
 523 -46 l 1
581 142 m 1
 475 338 371 539 267 736 c 1
 374 932 484 1130 592 1326 c 1
 695 1128 804 931 908 735 c 1
 801 538 689 340 581 142 c 1
EndSplineSet
EndChar

StartChar: m
Encoding: 109 109 266
Width: 1699
VWidth: 0
GlyphClass: 2
Flags: W
HStem: 977 92
VStem: 192 121 192 98 840 121 1475 121
LayerCount: 2
Fore
SplineSet
126 0 m 1
 347 0 l 1
 347 559 l 2
 347 764 432 904 584 904 c 0
 717 904 746 809 746 605 c 2
 746 0 l 1
 967 0 l 1
 967 560 l 2
 967 764 1063 904 1202 904 c 0
 1350 904 1362 779 1362 603 c 2
 1362 0 l 1
 1583 0 l 1
 1583 676 l 2
 1583 936 1479 1076 1248 1076 c 0
 1095 1076 964 997 897 797 c 1
 933 797 l 1
 899 970 811 1076 638 1076 c 0
 460 1076 347 965 301 786 c 1
 343 786 l 1
 308 1058 l 1
 126 1058 l 1
 126 0 l 1
EndSplineSet
EndChar

StartChar: macron
Encoding: 175 175 267
Width: 929
VWidth: 0
GlyphClass: 2
Flags: W
LayerCount: 2
Fore
SplineSet
133 1310 m 1
 786 1310 l 1
 786 1460 l 1
 133 1460 l 1
 133 1310 l 1
EndSplineSet
EndChar

StartChar: middot
Encoding: 65537 -1 268
Width: 405
VWidth: 0
GlyphClass: 2
Flags: W
LayerCount: 2
Fore
SplineSet
116 558 m 1
 116 754 l 1
 284 754 l 1
 284 558 l 1
 116 558 l 1
EndSplineSet
EndChar

StartChar: minus
Encoding: 8722 8722 269
Width: 1218
VWidth: 0
GlyphClass: 2
Flags: W
LayerCount: 2
Fore
SplineSet
108 491 m 1
 1110 491 l 1
 1110 662 l 1
 108 662 l 1
 108 491 l 1
EndSplineSet
EndChar

StartChar: mu
Encoding: 956 956 270
Width: 1125
VWidth: 0
Flags: W
LayerCount: 2
Fore
SplineSet
109 583 m 1
 109 -464 l 1
 333 -464 l 1
 333 583 l 1
 109 583 l 1
EndSplineSet
Refer: 357 117 N 1 0 0 1 0 0 2
EndChar

StartChar: multiply
Encoding: 215 215 271
Width: 1103
VWidth: 0
GlyphClass: 2
Flags: W
LayerCount: 2
Fore
SplineSet
832 168 m 1
 950 293 l 1
 950 293 723 531 674 580 c 1
 948 866 l 1
 827 988 l 1
 553 704 l 1
 276 990 l 1
 158 868 l 1
 431 580 l 1
 154 291 l 1
 272 167 l 1
 553 455 l 1
 832 168 l 1
EndSplineSet
EndChar

StartChar: n
Encoding: 110 110 272
Width: 1160
VWidth: 0
GlyphClass: 2
Flags: W
HStem: 0 21<126 350 350 350 822 1046 1046 1046> 977 92 1029 20
VStem: 192 121 898 121
LayerCount: 2
Fore
SplineSet
126 0 m 1
 350 0 l 1
 350 529 l 2
 350 724 438 904 620 904 c 0
 767 904 822 807 822 628 c 2
 822 0 l 1
 1046 0 l 1
 1046 646 l 2
 1046 922 903 1076 676 1076 c 0
 448 1076 358 942 307 786 c 1
 343 786 l 1
 311 1058 l 1
 126 1058 l 1
 126 0 l 1
EndSplineSet
EndChar

StartChar: nine
Encoding: 57 57 277
Width: 1217
VWidth: 0
GlyphClass: 2
Flags: W
LayerCount: 2
Fore
SplineSet
268 0 m 1
 546 0 l 1
 546 0 919 500 935 521 c 0
 1048 676 1141 811 1141 1009 c 0
 1141 1277 941 1480 632 1480 c 0
 336 1480 127 1285 127 1012 c 0
 127 743 335 565 593 565 c 0
 735 565 860 677 877 693 c 1
 834 732 l 1
 834 732 685 544 645 490 c 1
 268 0 l 1
636 738 m 0
 452 738 358 849 358 1016 c 0
 358 1177 460 1290 642 1290 c 0
 821 1290 912 1180 912 1021 c 0
 912 828 793 738 636 738 c 0
EndSplineSet
EndChar

StartChar: notequal
Encoding: 8800 8800 278
Width: 1179
VWidth: 0
GlyphClass: 2
Flags: W
LayerCount: 2
Fore
SplineSet
415 44 m 1
 553 327 l 1
 1105 327 l 1
 1095 480 l 1
 624 480 l 1
 755 735 l 1
 1105 735 l 1
 1093 896 l 1
 826 896 l 1
 940 1146 l 1
 797 1165 l 1
 662 896 l 1
 126 896 l 1
 137 736 l 1
 592 736 l 1
 464 481 l 1
 128 481 l 1
 137 327 l 1
 390 327 l 1
 273 67 l 1
 415 44 l 1
EndSplineSet
EndChar

StartChar: numbersign
Encoding: 35 35 280
Width: 1227
VWidth: 0
GlyphClass: 2
Flags: W
LayerCount: 2
Fore
SplineSet
723 554 m 1
 484 554 l 1
 562 958 l 1
 801 958 l 1
 723 554 l 1
616 -9 m 1
 756 -9 l 1
 843 442 l 1
 1038 442 l 1
 1054 554 l 1
 865 554 l 1
 942 958 l 1
 1125 958 l 1
 1142 1070 l 1
 963 1070 l 1
 1036 1448 l 1
 895 1448 l 1
 823 1070 l 1
 583 1070 l 1
 656 1448 l 1
 514 1448 l 1
 442 1070 l 1
 243 1070 l 1
 227 958 l 1
 421 958 l 1
 343 554 l 1
 156 554 l 1
 140 442 l 1
 322 442 l 1
 236 -9 l 1
 376 -9 l 1
 462 442 l 1
 702 442 l 1
 616 -9 l 1
EndSplineSet
EndChar

StartChar: o
Encoding: 111 111 281
Width: 1173
VWidth: 0
GlyphClass: 2
Flags: W
HStem: -19 92 977 92
VStem: 128 119 977 119
LayerCount: 2
Fore
SplineSet
587 152 m 0
 403 152 302 295 302 530 c 0
 302 766 405 904 587 904 c 0
 773 904 871 766 871 530 c 0
 871 294 773 152 587 152 c 0
587 -18 m 0
 897 -18 1097 199 1097 530 c 0
 1097 862 898 1076 587 1076 c 0
 271 1076 76 866 76 530 c 0
 76 202 280 -18 587 -18 c 0
EndSplineSet
EndChar

StartChar: ogonek
Encoding: 731 731 287
Width: 542
VWidth: 0
GlyphClass: 2
Flags: W
LayerCount: 2
Fore
SplineSet
480 -396 m 1
 475 -265 l 1
 459 -272 404 -294 353 -294 c 0
 310 -294 277 -263 277 -218 c 0
 277 -151 335 -54 406 0 c 1
 305 0 l 1
 216 -43 109 -140 109 -264 c 0
 109 -372 192 -430 310 -430 c 0
 368 -430 432 -415 480 -396 c 1
EndSplineSet
EndChar

StartChar: one
Encoding: 49 49 293
Width: 1217
VWidth: 0
GlyphClass: 2
Flags: W
LayerCount: 2
Fore
SplineSet
197 0 m 1
 1123 0 l 1
 1123 180 l 1
 719 180 l 1
 803 94 l 1
 803 1460 l 1
 590 1460 l 1
 509 1402 310 1340 202 1313 c 1
 202 1132 l 1
 330 1151 541 1219 608 1278 c 1
 563 1309 l 1
 563 94 l 1
 647 180 l 1
 197 180 l 1
 197 0 l 1
EndSplineSet
EndChar

StartChar: onehalf
Encoding: 189 189 294
Width: 1647
VWidth: 0
GlyphClass: 2
Flags: W
LayerCount: 2
Fore
SplineSet
77 584 m 1
 535 584 l 1
 535 725 l 1
 398 725 l 1
 398 1460 l 1
 263 1460 l 1
 229 1435 109 1372 63 1353 c 1
 63 1211 l 1
 78 1216 186 1264 223 1284 c 1
 223 725 l 1
 77 725 l 1
 77 584 l 1
289 0 m 1
 470 0 l 1
 1423 1460 l 1
 1247 1460 l 1
 289 0 l 1
1049 -20 m 1
 1590 -20 l 1
 1603 115 l 1
 1278 115 l 1
 1464 276 1607 386 1607 574 c 0
 1607 745 1468 840 1324 840 c 0
 1203 840 1092 791 1034 700 c 1
 1111 595 l 1
 1161 663 1240 695 1313 695 c 0
 1379 695 1444 651 1444 567 c 0
 1444 438 1122 186 1049 112 c 1
 1049 -20 l 1
EndSplineSet
EndChar

StartChar: onequarter
Encoding: 188 188 295
Width: 1581
VWidth: 0
GlyphClass: 2
Flags: W
LayerCount: 2
Fore
SplineSet
77 584 m 1
 535 584 l 1
 535 725 l 1
 398 725 l 1
 398 1460 l 1
 263 1460 l 1
 229 1435 109 1372 63 1353 c 1
 63 1211 l 1
 78 1216 186 1264 223 1284 c 1
 223 725 l 1
 77 725 l 1
 77 584 l 1
1311 0 m 1
 1463 0 l 1
 1463 180 l 1
 1571 180 l 1
 1576 305 l 1
 1463 305 l 1
 1463 848 l 1
 1301 848 l 1
 927 302 l 1
 927 180 l 1
 1311 180 l 1
 1311 0 l 1
289 0 m 1
 470 0 l 1
 1423 1460 l 1
 1247 1460 l 1
 289 0 l 1
1094 305 m 1
 1311 651 l 1
 1311 305 l 1
 1094 305 l 1
EndSplineSet
EndChar

StartChar: onesuperior
Encoding: 65538 -1 296
Width: 780
VWidth: 0
Flags: W
LayerCount: 2
Fore
SplineSet
239 598 m 1
 670 598 l 1
 670 707 l 1
 531 707 l 1
 531 1460 l 1
 421 1460 l 1
 379 1421 265 1372 229 1359 c 1
 229 1248 l 1
 263 1260 356 1297 393 1320 c 1
 393 707 l 1
 239 707 l 1
 239 598 l 1
EndSplineSet
EndChar

StartChar: ordmasculine
Encoding: 186 186 298
Width: 844
VWidth: 0
GlyphClass: 2
Flags: W
HStem: 715 144<361.802 484.034 361.802 530.323> 1356 144<362.482 481.665>
VStem: 65 177<1023.81 1187.3 1023.81 1216.79> 607 170<1022.07 1184.61>
LayerCount: 2
Fore
SplineSet
242 1105 m 0
 242 942.625 302.604 859 421 859 c 0
 547.069 859 607 942.136 607 1102 c 0
 607 1267.21 542.33 1356 421 1356 c 0
 303.964 1356 242 1269.6 242 1105 c 0
777 1105 m 0
 777 887.611 639.647 715 421 715 c 0
 190.38 715 65 885.213 65 1105 c 0
 65 1328.58 190.218 1500 421 1500 c 0
 657.698 1500 777 1331.3 777 1105 c 0
EndSplineSet
EndChar

StartChar: oslash
Encoding: 248 248 299
Width: 1197
VWidth: 0
GlyphClass: 2
Flags: W
LayerCount: 2
Fore
SplineSet
297 -152 m 1
 1031 1193 l 1
 954 1237 l 1
 226 -108 l 1
 297 -152 l 1
EndSplineSet
Refer: 281 111 N 1 0 0 1 0 0 2
EndChar

StartChar: p
Encoding: 112 112 302
Width: 1163
VWidth: 0
GlyphClass: 2
Flags: W
HStem: -19 92 977 92
VStem: 192 121 192 97 1003 121
LayerCount: 2
Fore
SplineSet
122 -441 m 1
 346 -441 l 1
 346 -37 l 1
 337 302 l 1
 287 302 l 1
 317 130 441 -18 638 -18 c 0
 918 -18 1090 211 1090 530 c 0
 1090 845 936 1076 663 1076 c 0
 510 1076 359 1009 301 786 c 1
 341 786 l 1
 307 1058 l 1
 122 1058 l 1
 122 -441 l 1
605 152 m 0
 433 152 343 279 343 548 c 1
 344 786 433 904 611 904 c 0
 778 904 864 777 864 532 c 0
 864 282 770 152 605 152 c 0
EndSplineSet
EndChar

StartChar: paragraph
Encoding: 182 182 303
Width: 1090
VWidth: 0
GlyphClass: 2
Flags: W
LayerCount: 2
Fore
SplineSet
443 -50 m 1
 595 -50 l 1
 595 1338 l 1
 763 1338 l 1
 763 -50 l 1
 916 -50 l 1
 916 1338 l 1
 993 1338 l 1
 993 1492 l 1
 547 1492 l 2
 246 1492 84 1376 84 1161 c 0
 84 979 208 841 443 841 c 1
 443 -50 l 1
EndSplineSet
EndChar

StartChar: parenleft
Encoding: 40 40 304
Width: 727
VWidth: 0
GlyphClass: 2
Flags: W
LayerCount: 2
Fore
SplineSet
459 -186 m 1
 668 -186 l 1
 503 84 406 372 406 692 c 0
 406 1017 529 1337 670 1549 c 1
 458 1549 l 1
 300 1329 188 1025 188 689 c 0
 188 341 294 46 459 -186 c 1
EndSplineSet
EndChar

StartChar: parenright
Encoding: 41 41 305
Width: 734
VWidth: 0
GlyphClass: 2
Flags: W
LayerCount: 2
Fore
SplineSet
103 -186 m 1
 314 -186 l 1
 470 25 585 352 585 702 c 0
 585 1036 481 1309 314 1549 c 1
 104 1549 l 1
 271 1275 366 1011 366 701 c 0
 366 366 242 21 103 -186 c 1
EndSplineSet
EndChar

StartChar: partialdiff
Encoding: 8706 8706 306
Width: 1205
VWidth: 0
GlyphClass: 2
Flags: W
LayerCount: 2
Fore
SplineSet
519 -28 m 0
 245 -28 125 181 125 449 c 0
 125 801 327 1070 614 1070 c 0
 751 1070 856 1007 923 895 c 1
 923 913 924 945 924 973 c 0
 924 1296 809 1496 594 1496 c 0
 492 1496 392 1452 312 1396 c 1
 299 1542 l 1
 382 1599 496 1640 618 1640 c 0
 914 1640 1075 1411 1075 910 c 0
 1075 449 911 -28 519 -28 c 0
520 118 m 0
 735 118 878 381 910 701 c 1
 875 821 783 929 640 929 c 0
 434 929 271 708 271 448 c 0
 271 249 368 118 520 118 c 0
EndSplineSet
EndChar

StartChar: percent
Encoding: 37 37 307
Width: 1855
VWidth: 0
GlyphClass: 2
Flags: W
LayerCount: 2
Fore
SplineSet
1419 -20 m 0
 1180 -20 1057 151 1057 371 c 0
 1057 591 1184 759 1419 759 c 0
 1659 759 1783 594 1783 371 c 0
 1783 151 1656 -20 1419 -20 c 0
1422 124 m 0
 1556 124 1610 234 1610 373 c 0
 1610 517 1555 619 1422 619 c 0
 1287 619 1231 512 1231 373 c 0
 1231 231 1287 124 1422 124 c 0
437 845 m 0
 571 845 625 955 625 1094 c 0
 625 1238 570 1340 437 1340 c 0
 302 1340 246 1233 246 1094 c 0
 246 952 302 845 437 845 c 0
434 701 m 0
 195 701 72 872 72 1092 c 0
 72 1312 199 1480 434 1480 c 0
 674 1480 798 1315 798 1092 c 0
 798 872 671 701 434 701 c 0
412 0 m 1
 1255 1460 l 1
 1438 1460 l 1
 604 0 l 1
 412 0 l 1
EndSplineSet
EndChar

StartChar: period
Encoding: 46 46 308
Width: 533
VWidth: 0
GlyphClass: 2
Flags: W
LayerCount: 2
Fore
SplineSet
284 -6 m 0
 367 -6 420 59 420 130 c 0
 420 202 367 268 284 268 c 0
 200 268 146 202 146 130 c 0
 146 58 201 -6 284 -6 c 0
EndSplineSet
EndChar

StartChar: periodcentered
Encoding: 183 183 309
Width: 405
VWidth: 0
GlyphClass: 2
Flags: W
LayerCount: 2
Fore
SplineSet
116 558 m 1
 116 721 l 1
 284 721 l 1
 284 558 l 1
 116 558 l 1
EndSplineSet
EndChar

StartChar: perthousand
Encoding: 8240 8240 310
Width: 2323
VWidth: 0
GlyphClass: 2
Flags: W
LayerCount: 2
Fore
SplineSet
416 913 m 0
 526 913 580 1032 580 1170 c 0
 580 1316 526 1429 412 1429 c 0
 300 1429 247 1310 247 1172 c 0
 247 1026 301 913 416 913 c 0
412 790 m 0
 223 790 118 944 118 1172 c 0
 118 1389 223 1548 414 1548 c 0
 607 1548 708 1401 708 1168 c 0
 708 953 600 790 412 790 c 0
268 -21 m 1
 1119 1537 l 1
 1275 1537 l 1
 403 -21 l 1
 268 -21 l 1
1110 93 m 0
 1242 93 1308 215 1308 352 c 0
 1308 497 1246 606 1109 606 c 0
 977 606 913 490 913 352 c 0
 913 206 978 93 1110 93 c 0
1108 -30 m 0
 890 -30 782 124 782 352 c 0
 782 568 888 730 1110 730 c 0
 1332 730 1435 580 1435 349 c 0
 1435 134 1327 -30 1108 -30 c 0
1880 93 m 0
 2012 93 2078 213 2078 352 c 0
 2078 494 2008 606 1877 606 c 0
 1741 606 1677 490 1677 352 c 0
 1677 206 1743 93 1880 93 c 0
1874 -30 m 0
 1658 -30 1550 124 1550 352 c 0
 1550 568 1659 730 1880 730 c 0
 2098 730 2202 584 2202 349 c 0
 2202 134 2093 -30 1874 -30 c 0
EndSplineSet
EndChar

StartChar: plus
Encoding: 43 43 311
Width: 1218
VWidth: 0
GlyphClass: 2
Flags: W
LayerCount: 2
Fore
SplineSet
524 154 m 1
 697 154 l 1
 697 557 l 1
 1081 557 l 1
 1081 723 l 1
 698 723 l 1
 698 1123 l 1
 525 1123 l 1
 525 723 l 1
 137 723 l 1
 137 557 l 1
 524 557 l 1
 524 154 l 1
EndSplineSet
EndChar

StartChar: plusminus
Encoding: 177 177 312
Width: 1218
VWidth: 0
GlyphClass: 2
Flags: W
LayerCount: 2
Fore
SplineSet
142 0 m 1
 142 159 l 1
 1076 159 l 1
 1076 0 l 1
 142 0 l 1
519 238 m 1
 692 238 l 1
 692 612 l 1
 1057 612 l 1
 1057 785 l 1
 692 785 l 1
 692 1150 l 1
 519 1150 l 1
 519 785 l 1
 151 785 l 1
 151 612 l 1
 519 612 l 1
 519 238 l 1
EndSplineSet
EndChar

StartChar: product
Encoding: 8719 8719 313
Width: 1456
VWidth: 0
GlyphClass: 2
Flags: W
LayerCount: 2
Fore
SplineSet
149 0 m 1
 149 1485 l 1
 1310 1485 l 1
 1310 0 l 1
 1134 0 l 1
 1134 1332 l 1
 325 1332 l 1
 325 0 l 1
 149 0 l 1
EndSplineSet
EndChar

StartChar: q
Encoding: 113 113 314
Width: 1173
VWidth: 0
GlyphClass: 2
Flags: W
LayerCount: 2
Fore
SplineSet
833 -441 m 1
 1057 -429 l 1
 1057 1058 l 1
 857 1058 l 1
 833 786 l 1
 877 786 l 1
 822 967 722 1076 527 1076 c 0
 257 1076 74 859 74 528 c 0
 74 198 255 -18 528 -18 c 0
 748 -18 848 119 884 297 c 1
 840 297 l 1
 833 -20 l 1
 833 -441 l 1
567 152 m 0
 402 152 300 286 300 531 c 0
 300 776 408 904 565 904 c 0
 751 904 838 784 838 531 c 0
 837 273 746 152 567 152 c 0
EndSplineSet
EndChar

StartChar: question
Encoding: 63 63 315
Width: 971
VWidth: 0
GlyphClass: 2
Flags: W
LayerCount: 2
Fore
SplineSet
385 -10 m 0
 469 -10 521 57 521 130 c 0
 521 203 469 269 385 269 c 0
 300 269 246 203 246 130 c 0
 246 57 301 -10 385 -10 c 0
433 439 m 1
 516 681 845 826 845 1142 c 0
 845 1370 653 1480 451 1480 c 0
 330 1480 206 1441 117 1364 c 1
 177 1180 l 1
 246 1220 327 1262 417 1262 c 0
 503 1262 589 1203 590 1089 c 1
 590 892 396 795 331 439 c 1
 433 439 l 1
EndSplineSet
EndChar

StartChar: quotedbl
Encoding: 34 34 317
Width: 763
VWidth: 0
GlyphClass: 2
Flags: W
LayerCount: 2
Fore
SplineSet
478 903 m 1
 611 903 l 1
 661 1460 l 1
 433 1460 l 1
 478 903 l 1
146 903 m 1
 280 903 l 1
 329 1460 l 1
 102 1460 l 1
 146 903 l 1
EndSplineSet
EndChar

StartChar: quotedblbase
Encoding: 8222 8222 318
Width: 822
VWidth: 0
GlyphClass: 2
Flags: W
LayerCount: 2
Fore
SplineSet
137 -250 m 1
 285 -250 l 1
 432 228 l 1
 236 228 l 1
 137 -250 l 1
441 -250 m 1
 591 -250 l 1
 739 228 l 1
 542 228 l 1
 441 -250 l 1
EndSplineSet
EndChar

StartChar: quotedblleft
Encoding: 8220 8220 319
Width: 728
VWidth: 0
GlyphClass: 2
Flags: W
LayerCount: 2
Fore
SplineSet
397 956 m 1
 248 1460 l 1
 91 1460 l 1
 180 956 l 1
 397 956 l 1
728 955 m 1
 566 1460 l 1
 414 1460 l 1
 508 955 l 1
 728 955 l 1
EndSplineSet
EndChar

StartChar: quotedblright
Encoding: 8221 8221 320
Width: 788
VWidth: 0
GlyphClass: 2
Flags: W
LayerCount: 2
Fore
SplineSet
89 904 m 1
 246 904 l 1
 397 1460 l 1
 180 1460 l 1
 89 904 l 1
411 904 m 1
 563 904 l 1
 727 1460 l 1
 506 1460 l 1
 411 904 l 1
EndSplineSet
EndChar

StartChar: quoteleft
Encoding: 8216 8216 321
Width: 426
VWidth: 0
GlyphClass: 2
Flags: W
LayerCount: 2
Fore
SplineSet
210 960 m 1
 364 960 l 1
 291 1460 l 1
 85 1460 l 1
 210 960 l 1
EndSplineSet
EndChar

StartChar: quoteright
Encoding: 8217 8217 322
Width: 422
VWidth: 0
GlyphClass: 2
Flags: W
LayerCount: 2
Fore
SplineSet
74 960 m 1
 220 960 l 1
 394 1460 l 1
 173 1460 l 1
 74 960 l 1
EndSplineSet
EndChar

StartChar: quotesinglbase
Encoding: 8218 8218 323
Width: 475
VWidth: 0
GlyphClass: 2
Flags: W
LayerCount: 2
Fore
SplineSet
101 -250 m 1
 248 -250 l 1
 394 228 l 1
 200 228 l 1
 101 -250 l 1
EndSplineSet
EndChar

StartChar: quotesingle
Encoding: 39 39 324
Width: 448
VWidth: 0
GlyphClass: 2
Flags: W
LayerCount: 2
Fore
SplineSet
167 925 m 1
 304 925 l 1
 327 1449 l 1
 140 1449 l 1
 167 925 l 1
EndSplineSet
EndChar

StartChar: r
Encoding: 114 114 325
Width: 775
VWidth: 0
GlyphClass: 2
Flags: W
HStem: 968 94
VStem: 192 121 192 92
LayerCount: 2
Fore
SplineSet
132 0 m 1
 356 0 l 1
 356 584 l 2
 356 797 475 893 656 893 c 0
 680 893 707 892 737 886 c 1
 742 1059 l 1
 717 1064 692 1065 666 1065 c 0
 538 1065 395 1023 313 786 c 1
 351 786 l 1
 317 1058 l 1
 132 1058 l 1
 132 0 l 1
EndSplineSet
EndChar

StartChar: radical
Encoding: 8730 8730 327
Width: 1265
VWidth: 0
GlyphClass: 2
Flags: W
LayerCount: 2
Fore
SplineSet
609 -165 m 1
 278 737 l 1
 126 707 l 1
 111 827 l 1
 370 883 l 1
 609 228 l 1
 668 44 l 1
 803 599 936 1150 1072 1705 c 1
 1184 1705 l 1
 747 -165 l 1
 609 -165 l 1
EndSplineSet
EndChar

StartChar: registered
Encoding: 174 174 330
Width: 1670
VWidth: 0
GlyphClass: 2
Flags: W
LayerCount: 2
Fore
SplineSet
528 277 m 1
 671 277 l 1
 671 697 l 1
 842 697 l 1
 865 674 1061 277 1061 277 c 1
 1220 277 l 1
 1220 277 1023 663 982 717 c 1
 1123 744 1180 830 1180 968 c 0
 1180 1149 1065 1223 848 1223 c 2
 528 1223 l 1
 528 277 l 1
671 822 m 1
 671 1099 l 1
 817 1099 l 2
 974 1099 1039 1087 1039 964 c 0
 1039 851 978 822 838 822 c 2
 671 822 l 1
834 87 m 0
 482 87 190 350 190 742 c 0
 190 1133 481 1397 833 1397 c 0
 1188 1397 1481 1132 1481 741 c 0
 1481 350 1188 87 834 87 c 0
834 -17 m 0
 1235 -17 1603 273 1603 742 c 0
 1603 1210 1234 1502 833 1502 c 0
 434 1502 68 1211 68 742 c 0
 68 273 435 -17 834 -17 c 0
EndSplineSet
EndChar

StartChar: rho
Encoding: 961 961 331
Width: 1188
VWidth: 0
GlyphClass: 2
Flags: W
LayerCount: 2
Fore
SplineSet
140 -452 m 1
 368 -441 l 1
 368 -38 l 2
 368 10 366 67 363 127 c 1
 434 39 554 -21 688 -21 c 0
 968 -21 1148 217 1148 542 c 0
 1148 865 982 1109 698 1109 c 0
 555 1109 423 1039 362 937 c 1
 341 1085 l 1
 140 1085 l 1
 140 -452 l 1
647 154 m 0
 451 154 367 287 367 563 c 1
 368 808 459 934 646 934 c 0
 821 934 920 798 920 547 c 0
 920 298 820 154 647 154 c 0
EndSplineSet
EndChar

StartChar: ring
Encoding: 730 730 332
Width: 602
VWidth: 0
GlyphClass: 2
Flags: W
LayerCount: 2
Fore
SplineSet
300 1181 m 0
 240 1181 207 1227 207 1283 c 0
 207 1336 243 1384 300 1384 c 0
 358 1384 395 1336 395 1283 c 0
 395 1228 358 1181 300 1181 c 0
300 1086 m 0
 425 1086 507 1178 507 1284 c 0
 507 1389 427 1480 300 1480 c 0
 174 1480 94 1390 94 1284 c 0
 94 1178 175 1086 300 1086 c 0
EndSplineSet
EndChar

StartChar: s
Encoding: 115 115 333
Width: 918
VWidth: 0
GlyphClass: 2
Flags: W
HStem: -19 92 977 92
VStem: 141 106 734 103
LayerCount: 2
Fore
SplineSet
469 -18 m 0
 668 -18 838 80 839 297 c 0
 840 438 795 534 475 649 c 0
 346 695 314 725 317 789 c 0
 321 873 388 904 484 904 c 0
 564 904 659 876 746 816 c 1
 806 989 l 1
 708 1046 589 1076 479 1076 c 0
 285 1076 114 994 115 787 c 0
 116 606 179 540 473 439 c 0
 622 388 631 348 631 291 c 0
 631 206 577 155 464 155 c 0
 378 155 259 186 129 257 c 1
 129 62 l 1
 231 11 361 -18 469 -18 c 0
EndSplineSet
EndChar

StartChar: section
Encoding: 167 167 339
Width: 918
VWidth: 0
GlyphClass: 2
Flags: W
LayerCount: 2
Fore
SplineSet
631 442 m 1
 725 491 837 574 837 720 c 0
 837 861 764 957 566 1023 c 2
 477 1053 l 2
 348 1097 319 1129 319 1193 c 0
 319 1267 390 1308 486 1308 c 0
 566 1308 661 1280 748 1220 c 1
 808 1393 l 1
 710 1450 591 1480 481 1480 c 0
 287 1480 117 1387 117 1181 c 0
 117 1029 179 943 369 879 c 2
 475 843 l 2
 612 797 638 756 638 699 c 0
 638 626 595 576 512 562 c 1
 631 442 l 1
471 -20 m 0
 670 -20 837 74 837 314 c 0
 837 455 764 551 566 617 c 2
 477 647 l 2
 348 691 319 723 319 787 c 0
 319 849 368 888 441 899 c 1
 343 1020 l 1
 201 959 116 868.508930141 116 744 c 0
 116 617 193 532 369 473 c 2
 475 437 l 2
 612 391 638 350 638 293 c 0
 638 208 579 153 466 153 c 0
 380 153 261 184 131 255 c 1
 131 60 l 1
 233 9 363 -20 471 -20 c 0
EndSplineSet
EndChar

StartChar: semicolon
Encoding: 59 59 340
Width: 600
VWidth: 0
GlyphClass: 2
Flags: W
LayerCount: 2
Fore
SplineSet
340 785 m 0
 423 785 476 850 476 921 c 0
 476 993 423 1059 340 1059 c 0
 256 1059 202 993 202 921 c 0
 202 849 257 785 340 785 c 0
184 -306 m 1
 321 -306 l 1
 445 229 l 1
 238 229 l 1
 184 -306 l 1
EndSplineSet
EndChar

StartChar: seven
Encoding: 55 55 341
Width: 1217
VWidth: 0
GlyphClass: 2
Flags: W
LayerCount: 2
Fore
SplineSet
343 0 m 1
 588 0 l 1
 1068 1298 l 1
 1068 1457 l 1
 178 1457 l 1
 186 1266 l 1
 811 1266 l 1
 343 0 l 1
EndSplineSet
EndChar

StartChar: six
Encoding: 54 54 342
Width: 1217
VWidth: 0
GlyphClass: 2
Flags: W
LayerCount: 2
Fore
SplineSet
623 -19 m 0
 919 -19 1128 172 1128 443 c 0
 1128 709 920 888 662 888 c 0
 506 888 399 772 380 760 c 1
 421 716 l 1
 421 716 585 933 623 988 c 2
 957 1460 l 1
 687 1460 l 1
 323 945 l 1
 206 782 115 648 115 447 c 0
 115 180 314 -19 623 -19 c 0
615 159 m 0
 436 159 345 278 345 436 c 0
 345 626 462 717 620 717 c 0
 804 717 897 605 897 440 c 0
 897 281 797 159 615 159 c 0
EndSplineSet
EndChar

StartChar: slash
Encoding: 47 47 343
Width: 934
VWidth: 0
GlyphClass: 2
Flags: W
LayerCount: 2
Fore
SplineSet
78 -163 m 1
 259 -163 l 1
 893 1444 l 1
 708 1444 l 1
 78 -163 l 1
EndSplineSet
EndChar

StartChar: sterling
Encoding: 163 163 345
Width: 1085
VWidth: 0
GlyphClass: 2
Flags: W
LayerCount: 2
Fore
SplineSet
98 10 m 1
 87 179 l 1
 262 199 l 1
 262 660 l 1
 82 660 l 1
 82 822 l 1
 262 822 l 1
 262 925 l 2
 262 1228 354 1476 688 1476 c 0
 836 1476 958 1423 1051 1344 c 1
 957 1197 l 1
 872 1259 792 1294 695 1294 c 0
 530 1294 472 1180 472 996 c 2
 472 822 l 1
 859 822 l 1
 859 660 l 1
 472 660 l 1
 472 201 l 1
 1067 201 l 1
 1058 10 l 1
 98 10 l 1
EndSplineSet
EndChar

StartChar: summation
Encoding: 8721 8721 346
Width: 1198
VWidth: 0
GlyphClass: 2
Flags: W
LayerCount: 2
Fore
SplineSet
71 -335 m 1
 1184 -335 l 1
 1184 -152 l 1
 328 -152 l 1
 898 581 l 1
 352 1294 l 1
 1144 1294 l 1
 1144 1470 l 1
 92 1470 l 1
 92 1351 l 1
 666 574 l 1
 71 -221 l 1
 71 -335 l 1
EndSplineSet
EndChar

StartChar: t
Encoding: 116 116 347
Width: 774
VWidth: 0
GlyphClass: 2
Flags: W
HStem: -11 83
VStem: 243 121 285 80
LayerCount: 2
Fore
SplineSet
689 -6 m 1
 698 157 l 1
 652 161 l 2
 448 179 410 172 410 361 c 2
 410 960 l 1
 371 912 l 1
 682 912 l 1
 682 1058 l 1
 371 1058 l 1
 410 1008 l 1
 410 1367 l 1
 219 1352 l 1
 195 1016 l 1
 251 1061 l 1
 26 1047 l 1
 19 912 l 1
 225 912 l 1
 186 961 l 1
 186 367 l 2
 186 101 256 -6 553 -6 c 2
 689 -6 l 1
EndSplineSet
EndChar

StartChar: tbar
Encoding: 359 359 348
Width: 889
VWidth: 0
GlyphClass: 2
Flags: W
LayerCount: 2
Fore
SplineSet
576 -19 m 0
 311 -19 291 110 291 442 c 2
 291 634 l 1
 137 634 l 1
 137 759 l 1
 291 759 l 1
 291 973 l 1
 124 973 l 1
 138 1090 l 1
 291 1090 l 1
 334 1337 l 1
 457 1345 l 1
 457 1090 l 1
 746 1090 l 1
 746 973 l 1
 457 973 l 1
 457 759 l 1
 665 759 l 1
 665 634 l 1
 457 634 l 1
 457 364 l 2
 457 160 480 116 614 116 c 0
 632 116 674 123 750 128 c 1
 765 -6 l 1
 641 -17 610 -19 576 -19 c 0
EndSplineSet
EndChar

StartChar: thorn
Encoding: 254 254 351
Width: 1163
VWidth: 0
Flags: W
LayerCount: 2
Fore
SplineSet
122 1460 m 1
 122 763 l 1
 347 763 l 1
 347 1480 l 1
 122 1460 l 1
EndSplineSet
Refer: 302 112 N 1 0 0 1 0 0 2
EndChar

StartChar: three
Encoding: 51 51 352
Width: 1217
VWidth: 0
GlyphClass: 2
Flags: W
LayerCount: 2
Fore
SplineSet
603 -20 m 0
 883 -20 1096 123 1096 395 c 0
 1096 582 1013 724 833 777 c 1
 979 826 1058 931 1058 1099 c 0
 1058 1331 860 1480 600 1480 c 0
 433 1480 286 1437 173 1367 c 1
 251 1187 l 1
 338 1243 450 1280 573 1280 c 0
 732 1280 830 1207 830 1083 c 0
 830 896 660 853 456 853 c 2
 400 853 l 1
 400 664 l 1
 455 664 l 2
 693 664 859 612 859 409 c 0
 859 263 756 180 589 180 c 0
 475 180 342 221 250 276 c 1
 178 101 l 1
 283 35 441 -20 603 -20 c 0
EndSplineSet
EndChar

StartChar: threequarters
Encoding: 190 190 353
Width: 1569
VWidth: 0
GlyphClass: 2
Flags: W
LayerCount: 2
Fore
SplineSet
1311 0 m 1
 1463 0 l 1
 1463 180 l 1
 1571 180 l 1
 1576 305 l 1
 1463 305 l 1
 1463 848 l 1
 1301 848 l 1
 927 302 l 1
 927 180 l 1
 1311 180 l 1
 1311 0 l 1
1094 305 m 1
 1311 651 l 1
 1311 305 l 1
 1094 305 l 1
77 584 m 1
 535 584 l 1
 535 725 l 1
 398 725 l 1
 398 1460 l 1
 263 1460 l 1
 229 1435 109 1372 63 1353 c 1
 63 1211 l 1
 78 1216 186 1264 223 1284 c 1
 223 725 l 1
 77 725 l 1
 77 584 l 1
289 0 m 1
 470 0 l 1
 1423 1460 l 1
 1247 1460 l 1
 289 0 l 1
EndSplineSet
EndChar

StartChar: tilde
Encoding: 732 732 354
Width: 784
VWidth: 0
GlyphClass: 2
Flags: W
HStem: 1327 90 1428 81
VStem: 172 64 670 68
LayerCount: 2
Fore
SplineSet
192 1227 m 1
 205 1297 229 1324 264 1324 c 0
 333 1324 441 1227 550 1227 c 0
 669 1227 721 1337 721 1460 c 1
 606 1460 l 1
 594 1397 574 1378 545 1378 c 0
 486 1378 392 1461 264 1461 c 0
 133 1461 78 1355 78 1227 c 1
 192 1227 l 1
EndSplineSet
EndChar

StartChar: trademark
Encoding: 8482 8482 355
Width: 1709
VWidth: 0
GlyphClass: 2
Flags: W
LayerCount: 2
Fore
SplineSet
793 619 m 1
 934 619 l 1
 934 1221 l 1
 1157 662 l 1
 1256 662 l 1
 1492 1225 l 1
 1492 619 l 1
 1633 619 l 1
 1633 1458 l 1
 1458 1458 l 1
 1213 867 l 1
 980 1458 l 1
 793 1458 l 1
 793 619 l 1
320 619 m 1
 463 619 l 1
 463 1324 l 1
 710 1324 l 1
 710 1458 l 1
 72 1458 l 1
 72 1324 l 1
 320 1324 l 1
 320 619 l 1
EndSplineSet
EndChar

StartChar: two
Encoding: 50 50 356
Width: 1217
VWidth: 0
GlyphClass: 2
Flags: W
LayerCount: 2
Fore
SplineSet
200 0 m 1
 1032 0 l 1
 1047 180 l 1
 324 180 l 1
 367 103 l 1
 792 558 l 1
 986 769 1053 885 1049 1072 c 0
 1043 1375 818 1481 595 1481 c 0
 436 1481 271 1428 165 1354 c 1
 236 1165 l 1
 315 1227 453 1280 573 1280 c 0
 698 1280 819 1222 819 1058 c 0
 819 934 754 850 646 725 c 2
 185 194 l 1
 200 0 l 1
EndSplineSet
EndChar

StartChar: u
Encoding: 117 117 357
Width: 1147
VWidth: 0
GlyphClass: 2
Flags: W
LayerCount: 2
Fore
SplineSet
1023 1058 m 1
 799 1058 l 1
 799 491 l 2
 799 282 743 152 542 152 c 0
 388 152 333 244 333 409 c 2
 333 1058 l 1
 109 1058 l 1
 109 400 l 2
 109 119 247 -18 488 -18 c 0
 678 -18 805 61 861 267 c 1
 809 267 l 1
 844 0 l 1
 1023 0 l 1
 1023 1058 l 1
EndSplineSet
EndChar

StartChar: underscore
Encoding: 95 95 366
Width: 1051
VWidth: 0
GlyphClass: 2
Flags: W
LayerCount: 2
Fore
SplineSet
66 -221 m 1
 1017 -221 l 1
 1017 -62 l 1
 66 -62 l 1
 66 -221 l 1
EndSplineSet
EndChar

StartChar: uni00AD
Encoding: 173 173 369
Width: 797
VWidth: 0
GlyphClass: 2
Flags: W
LayerCount: 2
Fore
SplineSet
87 303 m 1
 746 303 l 1
 746 485 l 1
 87 485 l 1
 87 303 l 1
EndSplineSet
EndChar

StartChar: uni00B2
Encoding: 178 178 370
Width: 744
VWidth: 0
GlyphClass: 2
Flags: W
HStem: 600 135<324 636> 1315 145<322.5 392>
VStem: 490 163<1122.5 1229>
LayerCount: 2
Fore
SplineSet
95 600 m 1
 95 732 l 1
 168 806 490 1058 490 1187 c 0
 490 1271 425 1315 359 1315 c 0
 286 1315 207 1283 157 1215 c 1
 80 1320 l 1
 138 1411 249 1460 370 1460 c 0
 514 1460 653 1365 653 1194 c 0
 653 1006 510 896 324 735 c 1
 649 735 l 1
 636 600 l 1
 95 600 l 1
EndSplineSet
EndChar

StartChar: uni00B3
Encoding: 179 179 371
Width: 759
VWidth: 0
GlyphClass: 2
Flags: W
LayerCount: 2
Fore
SplineSet
393 594 m 0
 547 594 678 688 678 858 c 0
 678 952 619 1028 536 1062 c 1
 622 1092 658 1157 659 1230 c 1
 659 1394 533 1468 397 1468 c 0
 303 1468 204 1435 141 1377 c 1
 196 1270 l 1
 236 1303 321 1333 389 1333 c 0
 459 1333 499 1293 499 1229 c 0
 499 1161 446 1122 342 1122 c 2
 262 1122 l 1
 262 986 l 1
 342 987 l 1
 452 987 524 944 524 860 c 0
 524 770 468 729 388 729 c 0
 327 729 236 756 191 798 c 1
 137 677 l 1
 205 620 308 594 393 594 c 0
EndSplineSet
EndChar

StartChar: uni00B9
Encoding: 185 185 373
Width: 732
VWidth: 0
GlyphClass: 2
Flags: W
LayerCount: 2
Fore
SplineSet
165 615 m 1
 652 615 l 1
 652 761 l 1
 503 761 l 1
 503 1473 l 1
 359 1474 l 1
 347 1462 167 1370 152 1367 c 1
 152 1210 l 1
 169 1214 282 1263 319 1283 c 1
 319 761 l 1
 165 761 l 1
 165 615 l 1
EndSplineSet
EndChar

StartChar: uni0237
Encoding: 567 567 459
Width: 526
VWidth: 0
GlyphClass: 2
Flags: W
HStem: -489 114
VStem: 113 145
LayerCount: 2
Fore
SplineSet
-24 -431 m 1
 38 -431 l 2
 344 -431 405 -310 405 -28 c 2
 405 1092 l 1
 171 1092 l 1
 171 -44 l 2
 171 -204 174 -252 8 -252 c 2
 -56 -252 l 1
 -24 -431 l 1
EndSplineSet
EndChar

StartChar: uni02BC
Encoding: 700 700 460
Width: 418
VWidth: 0
GlyphClass: 2
Flags: W
LayerCount: 2
Fore
SplineSet
116 1013 m 1
 249 1013 l 1
 345 1502 l 1
 161 1502 l 1
 116 1013 l 1
EndSplineSet
EndChar

StartChar: uni0307
Encoding: 775 775 461
Width: 411
VWidth: 0
GlyphClass: 2
Flags: W
LayerCount: 2
Fore
SplineSet
124 1250 m 1
 311 1250 l 1
 311 1460 l 1
 124 1460 l 1
 124 1250 l 1
EndSplineSet
EndChar

StartChar: uni030F
Encoding: 783 783 462
Width: 708
VWidth: 0
GlyphClass: 2
Flags: W
LayerCount: 2
Fore
SplineSet
594 1152 m 1
 489 1152 l 1
 358 1460 l 1
 502 1460 l 1
 594 1152 l 1
401 1152 m 1
 293 1152 l 1
 110 1460 l 1
 266 1460 l 1
 401 1152 l 1
EndSplineSet
EndChar

StartChar: uni0311
Encoding: 785 785 463
Width: 663
VWidth: 0
GlyphClass: 2
Flags: W
LayerCount: 2
Fore
SplineSet
79 1241 m 1
 226 1241 l 1
 226 1319 280 1356 344 1356 c 0
 408 1356 464 1320 464 1241 c 1
 611 1241 l 1
 611 1407 476 1481 345 1481 c 0
 213 1481 79 1406 79 1241 c 1
EndSplineSet
EndChar

StartChar: uni031B
Encoding: 795 795 464
Width: 511
VWidth: 0
GlyphClass: 2
Flags: W
LayerCount: 2
Fore
SplineSet
213 512 m 1
 227 477 237 436 237 398 c 0
 237 334 210 270 116 270 c 2
 102 270 l 1
 102 173 l 1
 122 171 141 169 160 169 c 0
 312 169 364 252 364 349 c 0
 364 400 348 459 324 512 c 1
 213 512 l 1
EndSplineSet
EndChar

StartChar: uni0326
Encoding: 806 806 465
Width: 302
VWidth: 0
GlyphClass: 2
Flags: W
LayerCount: 2
Fore
SplineSet
52 -677 m 1
 135 -200 l 1
 240 -200 l 1
 119 -677 l 1
 52 -677 l 1
EndSplineSet
EndChar

StartChar: uni040A
Encoding: 1034 1034 473
Width: 2129
VWidth: 0
GlyphClass: 2
Flags: W
LayerCount: 2
Fore
SplineSet
1075 0 m 1
 1596 0 l 2
 1925 0 2118 139 2118 420 c 0
 2118 702 1943 836 1599 836 c 2
 1251 836 l 1
 1327 759 l 1
 1328 1445 l 1
 1075 1445 l 1
 1075 768 l 1
 1148 836 l 1
 362 836 l 1
 439 768 l 1
 439 1445 l 1
 186 1445 l 1
 186 0 l 1
 439 0 l 1
 439 719 l 1
 362 650 l 1
 1153 650 l 1
 1075 719 l 1
 1075 0 l 1
1328 87 m 1
 1328 727 l 1
 1252 650 l 1
 1586 650 l 2
 1784 650 1868 592 1868 421 c 0
 1868 249 1764 188 1571 188 c 2
 1243 188 l 1
 1328 87 l 1
EndSplineSet
EndChar

StartChar: uni040B
Encoding: 1035 1035 474
Width: 1574
VWidth: 0
GlyphClass: 2
Flags: W
HStem: 711 96<641 953 953 955 641 953>
VStem: 1281 122
LayerCount: 2
Fore
SplineSet
1280 0 m 1
 1280 411 l 2
 1280 641 1168 711 955 711 c 2
 641 711 l 1
 641 0 l 1
 516 0 l 1
 516 1388 l 1
 59 1388 l 1
 59 1478 l 1
 1104 1478 l 1
 1104 1388 l 1
 641 1388 l 1
 641 807 l 1
 953 807 l 2
 1267 807 1405 671 1405 412 c 2
 1405 0 l 1
 1280 0 l 1
EndSplineSet
EndChar

StartChar: uni040F
Encoding: 1039 1039 476
Width: 1553
VWidth: 0
GlyphClass: 2
Flags: W
LayerCount: 2
Fore
SplineSet
1325 1478 m 1
 1325 0 l 1
 230 0 l 1
 230 1478 l 1
 354 1478 l 1
 354 52 l 1
 293 89 l 1
 1257 89 l 1
 1201 52 l 1
 1201 1478 l 1
 1325 1478 l 1
733 -300 m 1
 733 33 l 1
 858 33 l 1
 858 -300 l 1
 733 -300 l 1
EndSplineSet
EndChar

StartChar: uni0411
Encoding: 1041 1041 478
Width: 1269
VWidth: 0
GlyphClass: 2
Flags: W
LayerCount: 2
Fore
SplineSet
182 0 m 1
 731 0 l 2
 1060 0 1250 143 1250 424 c 0
 1250 706 1077 844 733 844 c 2
 346 844 l 1
 435 770 l 1
 435 1348 l 1
 358 1269 l 1
 1098 1269 l 1
 1098 1457 l 1
 182 1457 l 1
 182 0 l 1
435 90 m 1
 435 732 l 1
 346 653 l 1
 720 653 l 2
 916 653 996 593 996 422 c 0
 996 250 894 191 705 191 c 2
 352 191 l 1
 435 90 l 1
EndSplineSet
EndChar

StartChar: uni0414
Encoding: 1044 1044 479
Width: 1492
VWidth: 0
GlyphClass: 2
Flags: W
HStem: 0 90<141 191 266 1174 1258 1282 141 141>
LayerCount: 2
Fore
SplineSet
28 -300 m 1
 28 90 l 1
 191 90 l 1
 285 156 328 384 385 1112 c 1
 412 1477 l 1
 1258 1477 l 1
 1258 90 l 1
 1393 90 l 1
 1393 -300 l 1
 1282 -300 l 1
 1282 0 l 1
 141 0 l 1
 141 -300 l 1
 28 -300 l 1
302 34 m 1
 266 90 l 1
 1174 90 l 1
 1134 90 l 1
 1133 1447 l 1
 1195 1388 l 1
 465 1387 l 1
 530 1432 l 1
 501 1101 l 1
 460 590 431 162 302 34 c 1
EndSplineSet
EndChar

StartChar: uni041B
Encoding: 1051 1051 483
Width: 1526
VWidth: 0
GlyphClass: 2
Flags: W
LayerCount: 2
Fore
SplineSet
-73 -25 m 1
 28 -25 l 2
 335 -25 480 142 480 466 c 2
 480 1326 l 1
 404 1257 l 1
 1220 1257 l 1
 1141 1326 l 1
 1141 -0 l 1
 1394 -1 l 1
 1394 1445 l 1
 227 1445 l 1
 227 449 l 2
 227 302 188 177 -1 177 c 2
 -73 177 l 1
 -73 -25 l 1
EndSplineSet
EndChar

StartChar: uni041F
Encoding: 1055 1055 487
Width: 1504
VWidth: 0
GlyphClass: 2
Flags: W
LayerCount: 2
Fore
SplineSet
186 0 m 1
 439 0 l 1
 439 1326 l 1
 363 1257 l 1
 1197 1257 l 1
 1118 1326 l 1
 1118 0 l 1
 1371 0 l 1
 1371 1445 l 1
 186 1445 l 1
 186 0 l 1
EndSplineSet
EndChar

StartChar: uni0423
Encoding: 1059 1059 491
Width: 1361
VWidth: 0
GlyphClass: 2
Flags: W
LayerCount: 2
Fore
SplineSet
425 0 m 1
 694 546 l 1
 711 463 l 1
 161 1469 l 1
 278 1469 l 1
 764 563 l 1
 720 595 l 1
 1123 1469 l 1
 1241 1469 l 1
 543 0 l 1
 425 0 l 1
EndSplineSet
EndChar

StartChar: uni0424
Encoding: 1060 1060 492
Width: 1645
VWidth: 0
GlyphClass: 2
Flags: W
LayerCount: 2
Fore
SplineSet
747 0 m 1
 957 0 l 1
 957 140 l 1
 1360 161 1628 382 1628 736 c 0
 1628 1087 1358 1306 957 1325 c 1
 957 1452 l 1
 747 1452 l 1
 746 1324 l 1
 339 1299 83 1073 83 736 c 0
 83 394 341 165 746 140 c 1
 747 0 l 1
746 332 m 1
 451 356 310 518 310 735 c 0
 310 948 452 1109 746 1133 c 1
 746 332 l 1
957 331 m 1
 957 1133 l 1
 1262 1111 1402 949 1402 735 c 0
 1402 517 1260 353 957 331 c 1
EndSplineSet
EndChar

StartChar: uni0427
Encoding: 1063 1063 494
Width: 1400
VWidth: 0
GlyphClass: 2
Flags: W
LayerCount: 2
Fore
SplineSet
958 8 m 1
 1177 8 l 1
 1177 1439 l 1
 958 1439 l 1
 958 731 l 1
 940 724 658 712 645 712 c 0
 443 712 350 750 350 961 c 2
 350 1439 l 1
 139 1439 l 1
 139 933 l 2
 139 626 337 521 640 521 c 0
 654 521 932 526 958 537 c 1
 958 8 l 1
EndSplineSet
EndChar

StartChar: uni0428
Encoding: 1064 1064 495
Width: 1712
VWidth: 0
GlyphClass: 2
Flags: W
LayerCount: 2
Fore
SplineSet
168 0 m 1
 1602 0 l 1
 1602 1457 l 1
 1371 1457 l 1
 1371 180 l 1
 1007 180 l 1
 1007 1457 l 1
 777 1457 l 1
 777 180 l 1
 398 180 l 1
 398 1457 l 1
 168 1457 l 1
 168 0 l 1
EndSplineSet
EndChar

StartChar: uni0429
Encoding: 1065 1065 496
Width: 1763
VWidth: 0
GlyphClass: 2
Flags: W
LayerCount: 2
Fore
SplineSet
1532 -311 m 1
 1738 -311 l 1
 1738 137 l 1
 1616 137 l 1
 1616 1457 l 1
 1385 1457 l 1
 1385 180 l 1
 1021 180 l 1
 1021 1457 l 1
 791 1457 l 1
 791 180 l 1
 412 180 l 1
 412 1457 l 1
 182 1457 l 1
 182 0 l 1
 1532 0 l 1
 1532 -311 l 1
EndSplineSet
EndChar

StartChar: uni042A
Encoding: 1066 1066 497
Width: 1363
VWidth: 0
GlyphClass: 2
Flags: W
LayerCount: 2
Fore
SplineSet
221 0 m 1
 736 0 l 2
 1065 0 1255 143 1255 424 c 0
 1255 706 1083 844 739 844 c 2
 385 844 l 1
 474 770 l 1
 475 1444 l 1
 -33 1444 l 1
 -34 1257 l 1
 308 1257 l 1
 221 1339 l 1
 221 0 l 1
474 90 m 1
 474 735 l 1
 384 655 l 1
 726 655 l 2
 922 655 1002 596 1002 425 c 0
 1002 253 899 191 710 191 c 2
 390 191 l 1
 474 90 l 1
EndSplineSet
EndChar

StartChar: uni042B
Encoding: 1067 1067 498
Width: 1804
VWidth: 0
GlyphClass: 2
Flags: W
LayerCount: 2
Fore
SplineSet
1451 0 m 1
 1451 1478 l 1
 1576 1478 l 1
 1576 0 l 1
 1451 0 l 1
230 0 m 1
 230 1477 l 1
 354 1477 l 1
 354 793 l 1
 308 836 l 1
 706 836 l 2
 1108 836 1193 641 1193 424 c 0
 1193 197 1117 0 713 0 c 2
 230 0 l 1
354 42 m 1
 306 96 l 1
 719 96 l 2
 974 96 1069 193 1069 420 c 0
 1069 652 982 740 705 740 c 2
 306 740 l 1
 354 773 l 1
 354 42 l 1
EndSplineSet
EndChar

StartChar: uni042C
Encoding: 1068 1068 499
Width: 1296
VWidth: 0
GlyphClass: 2
Flags: W
LayerCount: 2
Fore
SplineSet
182 0 m 1
 718 0 l 2
 1047 0 1237 143 1237 424 c 0
 1237 706 1064 844 720 844 c 2
 346 844 l 1
 435 770 l 1
 436 1444 l 1
 182 1443 l 1
 182 0 l 1
435 90 m 1
 435 735 l 1
 346 655 l 1
 707 655 l 2
 903 655 983 596 983 425 c 0
 983 253 881 191 692 191 c 2
 352 191 l 1
 435 90 l 1
EndSplineSet
EndChar

StartChar: uni0431
Encoding: 1073 1073 501
Width: 1097
VWidth: 0
GlyphClass: 2
Flags: W
LayerCount: 2
Fore
SplineSet
576 -20 m 0
 63 -20 118 541 118 531 c 1
 118 934 291 1198 911 1234 c 1
 908 1156 l 1
 635 1140 317 1100 235 699 c 1
 384 770 427 835 619 835 c 0
 866 835 977 584 977 427 c 0
 977 196 830 -20 576 -20 c 0
572 73 m 0
 820 73 891 198 891 443 c 0
 891 610 781 761 619 761 c 0
 566 761 403 747 253 600 c 1
 200 196 420 73 572 73 c 0
EndSplineSet
EndChar

StartChar: uni0432
Encoding: 1074 1074 502
Width: 1144
VWidth: 0
GlyphClass: 2
Flags: W
HStem: 0 87<321 646 646 651> 516 92<321 691 691 696 321 691> 989 87<321 651 321 321>
VStem: 882 122<755 855> 918 122<247 352.5 242.5 354>
LayerCount: 2
Fore
SplineSet
197 0 m 1
 197 1076 l 1
 653 1076 l 2
 932 1076 1004 930 1004 805 c 0
 1004 680 938 606 831 573 c 1
 999 527 1040 398 1040 307 c 0
 1040 178 984 0 651 0 c 2
 197 0 l 1
321 87 m 1
 646 87 l 2
 885 87 918 187 918 307 c 0
 918 401 917 516 696 516 c 2
 321 516 l 1
 321 87 l 1
321 608 m 1
 691 608 l 2
 857 608 882 710 882 800 c 0
 882 910 833 989 651 989 c 2
 321 989 l 1
 321 608 l 1
EndSplineSet
EndChar

StartChar: uni0433
Encoding: 1075 1075 503
Width: 932
VWidth: 0
GlyphClass: 2
Flags: W
VStem: 197 680
LayerCount: 2
Fore
SplineSet
197 0 m 1
 197 1076 l 1
 876 1076 l 1
 876 980 l 1
 321 980 l 1
 321 0 l 1
 197 0 l 1
EndSplineSet
EndChar

StartChar: uni0434
Encoding: 1076 1076 504
Width: 1265
VWidth: 0
GlyphClass: 2
Flags: W
LayerCount: 2
Fore
SplineSet
62 -280 m 1
 62 78 l 1
 167 78 l 1
 251 102 272 179 310 284 c 1
 453 1078 l 1
 1071 1078 l 1
 1071 78 l 1
 1133 78 l 1
 1133 -280 l 1
 1027 -280 l 1
 1039 0 l 1
 151 0 l 1
 157 -280 l 1
 62 -280 l 1
303 75 m 1
 936 75 l 1
 936 1008 l 1
 546 1008 l 1
 547 1036 444 381 446 401 c 1
 408 224 346 81 303 75 c 1
EndSplineSet
EndChar

StartChar: uni0436
Encoding: 1078 1078 506
Width: 1568
VWidth: 0
GlyphClass: 2
Flags: W
LayerCount: 2
Fore
SplineSet
62 0 m 1
 615 557 l 1
 65 1078 l 1
 173 1078 l 1
 705 562 l 1
 705 1078 l 1
 837 1078 l 1
 837 562 l 1
 1373 1078 l 1
 1479 1078 l 1
 930 557 l 1
 1482 0 l 1
 1362 0 l 1
 837 534 l 1
 837 0 l 1
 705 0 l 1
 705 534 l 1
 184 0 l 1
 62 0 l 1
EndSplineSet
EndChar

StartChar: uni0438
Encoding: 1080 1080 507
Width: 1187
VWidth: 0
GlyphClass: 2
Flags: W
LayerCount: 2
Fore
SplineSet
175 0 m 1
 175 1076 l 1
 277 1076 l 1
 277 160 l 1
 892 986 l 1
 892 1076 l 1
 997 1076 l 1
 997 0 l 1
 892 0 l 1
 892 828 l 1
 276 0 l 1
 175 0 l 1
EndSplineSet
EndChar

StartChar: uni043A
Encoding: 1082 1082 509
Width: 1224
VWidth: 0
GlyphClass: 2
Flags: W
LayerCount: 2
Fore
SplineSet
212 0 m 1
 212 1076 l 1
 344 1076 l 1
 344 558 l 1
 820 1075 l 1
 986 1077 l 1
 484 539 l 1
 1044 0 l 1
 895 0 l 1
 344 526 l 1
 344 0 l 1
 212 0 l 1
EndSplineSet
EndChar

StartChar: uni043B
Encoding: 1083 1083 510
Width: 1243
VWidth: 0
GlyphClass: 2
Flags: W
HStem: -7 103
LayerCount: 2
Fore
SplineSet
44 -7 m 1
 26 95 l 1
 206 95 272 138 320 499 c 1
 387 1076 l 1
 1048 1076 l 1
 1048 -1 l 1
 916 -1 l 1
 916 981 l 1
 500 981 l 1
 437 487 l 1
 387 65 297 -7 44 -7 c 1
EndSplineSet
EndChar

StartChar: uni043C
Encoding: 1084 1084 511
Width: 1386
VWidth: 0
GlyphClass: 2
Flags: W
LayerCount: 2
Fore
SplineSet
197 0 m 1
 197 1076 l 1
 308 1076 l 1
 697 297 l 1
 1082 1076 l 1
 1190 1076 l 1
 1190 0 l 1
 1075 0 l 1
 1075 835 l 1
 742 165 l 1
 649 165 l 1
 312 835 l 1
 312 0 l 1
 197 0 l 1
EndSplineSet
EndChar

StartChar: uni043D
Encoding: 1085 1085 512
Width: 1270
VWidth: 0
GlyphClass: 2
Flags: W
LayerCount: 2
Fore
SplineSet
197 0 m 1
 197 1076 l 1
 321 1076 l 1
 321 620 l 1
 951 620 l 1
 951 1076 l 1
 1075 1076 l 1
 1075 0 l 1
 951 0 l 1
 951 523 l 1
 321 523 l 1
 321 0 l 1
 197 0 l 1
EndSplineSet
EndChar

StartChar: uni043F
Encoding: 1087 1087 514
Width: 1242
VWidth: 0
GlyphClass: 2
Flags: W
LayerCount: 2
Fore
SplineSet
197 0 m 1
 197 1076 l 1
 1047 1076 l 1
 1047 0 l 1
 922 0 l 1
 922 982 l 1
 321 982 l 1
 321 0 l 1
 197 0 l 1
EndSplineSet
EndChar

StartChar: uni0442
Encoding: 1090 1090 517
Width: 1045
VWidth: 0
GlyphClass: 2
Flags: W
LayerCount: 2
Fore
SplineSet
444 0 m 1
 444 973 l 1
 139 973 l 1
 139 1076 l 1
 892 1076 l 1
 892 973 l 1
 582 973 l 1
 582 0 l 1
 444 0 l 1
EndSplineSet
EndChar

StartChar: uni0443
Encoding: 1091 1091 518
Width: 1140
VWidth: 0
GlyphClass: 2
Flags: W
LayerCount: 2
Fore
SplineSet
256 -310 m 1
 256 -207 l 1
 559 -207 598 -187 596 29 c 2
 594 218 l 1
 627 86 l 1
 120 1076 l 1
 247 1076 l 1
 671 234 l 1
 620 234 l 1
 965 1076 l 1
 1087 1076 l 1
 685 94 l 1
 708 225 l 1
 710 27 l 2
 713 -250 673 -310 256 -310 c 1
EndSplineSet
EndChar

StartChar: uni0444
Encoding: 1092 1092 519
Width: 1502
VWidth: 0
GlyphClass: 2
Flags: W
LayerCount: 2
Fore
SplineSet
658 -389 m 1
 658 82 l 1
 596 53 509 44 437 44 c 0
 231 44 64 254 64 552 c 0
 64 850 211 1039 426 1039 c 0
 493 1039 596 1018 658 989 c 1
 658 1330 l 1
 763 1330 l 1
 763 989 l 1
 828 1019 920 1039 992 1039 c 0
 1206 1039 1357 851 1357 553 c 0
 1357 257 1190 44 982 44 c 0
 910 44 823 53 763 82 c 1
 763 -389 l 1
 658 -389 l 1
443 137 m 0
 509 137 593 144 658 178 c 1
 658 903 l 1
 584 943 493 948 425 948 c 0
 263 948 185 769 185 553 c 0
 185 339 281 137 443 137 c 0
978 137 m 0
 1137 137 1237 338 1237 552 c 0
 1237 769 1154 947 994 947 c 0
 922 947 835 936 763 896 c 1
 763 183 l 1
 831 143 910 137 978 137 c 0
EndSplineSet
EndChar

StartChar: uni0446
Encoding: 1094 1094 521
Width: 1221
VWidth: 0
GlyphClass: 2
Flags: W
LayerCount: 2
Fore
SplineSet
972 -280 m 1
 987 0 l 1
 212 0 l 1
 212 1078 l 1
 342 1078 l 1
 342 79 l 1
 908 79 l 1
 908 1078 l 1
 1039 1078 l 1
 1039 138 l 1
 1136 138 l 1
 1136 -280 l 1
 972 -280 l 1
EndSplineSet
EndChar

StartChar: uni0447
Encoding: 1095 1095 522
Width: 1061
VWidth: 0
GlyphClass: 2
Flags: W
LayerCount: 2
Fore
SplineSet
754 0 m 1
 978 0 l 1
 978 1085 l 1
 754 1085 l 1
 754 658 l 1
 750 619 643 555 534 555 c 0
 360 555 315 653 315 844 c 2
 315 1085 l 1
 91 1085 l 1
 91 812 l 2
 91 510 230 380 503 378 c 0
 596 378 715 403 754 442 c 1
 754 0 l 1
EndSplineSet
EndChar

StartChar: uni0448
Encoding: 1096 1096 523
Width: 1520
VWidth: 0
GlyphClass: 2
Flags: W
LayerCount: 2
Fore
SplineSet
295 0 m 1
 295 1076 l 1
 420 1076 l 1
 420 78 l 1
 750 78 l 1
 750 1076 l 1
 857 1076 l 1
 857 78 l 1
 1185 78 l 1
 1185 1076 l 1
 1313 1076 l 1
 1313 0 l 1
 295 0 l 1
EndSplineSet
EndChar

StartChar: uni0449
Encoding: 1097 1097 524
Width: 1474
VWidth: 0
GlyphClass: 2
Flags: W
LayerCount: 2
Fore
SplineSet
1227 -286 m 1
 1238 0 l 1
 214 0 l 1
 214 1078 l 1
 356 1078 l 1
 356 79 l 1
 710 79 l 1
 710 1078 l 1
 854 1078 l 1
 854 79 l 1
 1146 79 l 1
 1146 1078 l 1
 1290 1078 l 1
 1290 137 l 1
 1388 137 l 1
 1388 -286 l 1
 1227 -286 l 1
EndSplineSet
EndChar

StartChar: uni044A
Encoding: 1098 1098 525
Width: 1048
VWidth: 0
GlyphClass: 2
Flags: W
LayerCount: 2
Fore
SplineSet
233 0 m 1
 233 998 l 1
 84 998 l 1
 84 1076 l 1
 364 1076 l 1
 364 684 l 1
 568 684 l 2
 876 684 934 500 934 354 c 0
 934 198 865 0 570 0 c 2
 233 0 l 1
363 87 m 1
 585 87 l 2
 743 87 786 247 786 356 c 0
 786 471 730 590 578 590 c 2
 363 590 l 1
 363 87 l 1
EndSplineSet
EndChar

StartChar: uni044B
Encoding: 1099 1099 526
Width: 1536
VWidth: 0
GlyphClass: 2
Flags: W
HStem: 0 87<320 581> 588 94
VStem: 835 119<274 424.5 274 433.5>
LayerCount: 2
Fore
SplineSet
197 0 m 1
 197 1076 l 1
 321 1076 l 1
 321 681 l 1
 579 681 l 2
 888 681 954 497 954 352 c 0
 954 196 887 0 581 0 c 2
 197 0 l 1
320 87 m 1
 585 87 l 2
 744 87 835 169 835 354 c 0
 835 513 743 588 589 588 c 2
 320 588 l 1
 320 87 l 1
1216 0 m 1
 1216 1076 l 1
 1340 1076 l 1
 1340 0 l 1
 1216 0 l 1
EndSplineSet
EndChar

StartChar: uni044C
Encoding: 1100 1100 527
Width: 1038
VWidth: 0
GlyphClass: 2
Flags: W
HStem: 0 87<320 581> 588 94
VStem: 835 119<274 424.5 274 433.5>
LayerCount: 2
Fore
SplineSet
197 0 m 1
 197 1076 l 1
 321 1076 l 1
 321 681 l 1
 579 681 l 2
 888 681 954 497 954 352 c 0
 954 196 887 0 581 0 c 2
 197 0 l 1
320 87 m 1
 585 87 l 2
 744 87 835 169 835 354 c 0
 835 513 743 588 589 588 c 2
 320 588 l 1
 320 87 l 1
EndSplineSet
EndChar

StartChar: uni044D
Encoding: 1101 1101 528
Width: 1218
VWidth: 0
GlyphClass: 2
Flags: W
LayerCount: 2
Fore
SplineSet
509 -29 m 0
 368 -29 236 9 183 67 c 1
 214 147 l 1
 325 84 419 65 502 65 c 0
 751 65 913 247 929 483 c 1
 479 483 l 1
 479 586 l 1
 929 586 l 1
 912 829 782 1017 497 1017 c 0
 379 1017 293 979 211 930 c 1
 173 1008 l 1
 247 1075 392 1109 495 1109 c 0
 920 1109 1034 786 1034 521 c 0
 1034 282 889 -29 509 -29 c 0
EndSplineSet
EndChar

StartChar: uni044E
Encoding: 1102 1102 529
Width: 1550
VWidth: 0
GlyphClass: 2
Flags: W
LayerCount: 2
Fore
SplineSet
928 -29 m 0
 612 -29 485 195 480 493 c 1
 265 493 l 1
 265 0 l 1
 175 0 l 1
 175 1076 l 1
 265 1076 l 1
 265 578 l 1
 480 578 l 1
 486 872 615 1109 933 1109 c 0
 1278 1109 1365 851 1365 539 c 0
 1365 241 1266 -29 928 -29 c 0
933 65 m 0
 1192 65 1260 298 1260 536 c 0
 1260 781 1202 1015 928 1015 c 0
 665 1015 589 767 589 530 c 0
 589 298 668 65 933 65 c 0
EndSplineSet
EndChar

StartChar: uni044F
Encoding: 1103 1103 530
Width: 1158
VWidth: 0
GlyphClass: 2
Flags: W
HStem: 0 22 441 91 988 88<391.5 963 499 838>
VStem: 126 119 838 124
LayerCount: 2
Fore
SplineSet
185 0 m 1
 389 448 l 1
 190 497 126 655 126 767 c 0
 126 911 223 1076 499 1076 c 2
 963 1076 l 1
 963 0 l 1
 838 0 l 1
 838 441 l 1
 514 441 l 1
 316 0 l 1
 185 0 l 1
520 531 m 2
 838 531 l 1
 838 988 l 1
 499 988 l 2
 284 988 246 868 246 760 c 0
 246 622 343 531 520 531 c 2
EndSplineSet
EndChar

StartChar: uni0452
Encoding: 1106 1106 533
Width: 1360
VWidth: 0
GlyphClass: 2
Flags: W
LayerCount: 2
Fore
SplineSet
810 -286 m 1
 799 -155 l 1
 835 -155 l 2
 1016 -155 1038 -119 1038 97 c 2
 1038 362 l 2
 1038 611 1005 738 807 738 c 0
 626 738 482 597 453 489 c 1
 453 0 l 1
 300 0 l 1
 300 1093 l 1
 205 1093 l 1
 205 1196 l 1
 300 1196 l 1
 300 1494 l 1
 453 1494 l 1
 453 1196 l 1
 878 1196 l 1
 878 1093 l 1
 453 1093 l 1
 453 684 l 1
 546 804 665 877 822 877 c 0
 1077 877 1193 722 1193 436 c 2
 1193 150 l 2
 1193 -156 1172 -286 877 -286 c 2
 810 -286 l 1
EndSplineSet
EndChar

StartChar: uni045A
Encoding: 1114 1114 539
Width: 1555
VWidth: 0
GlyphClass: 2
Flags: W
HStem: 0 88 526 88
VStem: 1476 105
LayerCount: 2
Fore
SplineSet
125 0 m 1
 348 0 l 1
 348 486 l 1
 782 486 l 1
 782 0 l 1
 1208 0 l 2
 1433 0 1566 148 1566 337 c 0
 1566 545 1439 666 1209 666 c 2
 1002 666 l 1
 1002 1085 l 1
 782 1085 l 1
 782 665 l 1
 348 665 l 1
 348 1085 l 1
 125 1085 l 1
 125 0 l 1
1002 170 m 1
 1002 505 l 1
 1199 505 l 2
 1322 505 1377 432 1377 342 c 0
 1377 249 1323 170 1200 170 c 2
 1002 170 l 1
EndSplineSet
EndChar

StartChar: uni045F
Encoding: 1119 1119 543
Width: 1062
VWidth: 0
GlyphClass: 2
Flags: W
LayerCount: 2
Fore
SplineSet
486 -299 m 1
 661 -299 l 1
 669 0 l 1
 989 0 l 1
 989 1085 l 1
 777 1085 l 1
 777 169 l 1
 332 169 l 1
 332 1085 l 1
 119 1085 l 1
 119 0 l 1
 479 0 l 1
 486 -299 l 1
EndSplineSet
EndChar

StartChar: uni2074
Encoding: 8308 8308 562
Width: 765
VWidth: 0
GlyphClass: 2
Flags: W
LayerCount: 2
Fore
SplineSet
425 625 m 1
 561 625 l 1
 562 808 l 1
 670 808 l 1
 659 946 l 1
 563 946 l 1
 563 1454 l 1
 422 1454 l 1
 95 921 l 1
 95 808 l 1
 425 808 l 1
 425 625 l 1
262 946 m 1
 424 1218 l 1
 424 946 l 1
 262 946 l 1
EndSplineSet
EndChar

StartChar: uni2206
Encoding: 8710 8710 563
Width: 1385
VWidth: 0
GlyphClass: 2
Flags: W
LayerCount: 2
Fore
SplineSet
108 0 m 1
 108 85 l 1
 600 1530 l 1
 789 1530 l 1
 1280 85 l 1
 1280 0 l 1
 108 0 l 1
308 172 m 1
 1080 172 l 1
 724 1186 l 1
 690 1304 l 1
 657 1186 l 1
 308 172 l 1
EndSplineSet
EndChar

StartChar: v
Encoding: 118 118 572
Width: 1052
VWidth: 0
GlyphClass: 2
Flags: W
LayerCount: 2
Fore
SplineSet
425 0 m 1
 639 0 l 1
 1038 1058 l 1
 812 1058 l 1
 610 475 l 1
 515 167 l 1
 559 167 l 1
 455 475 l 1
 248 1058 l 1
 14 1058 l 1
 425 0 l 1
EndSplineSet
EndChar

StartChar: w
Encoding: 119 119 573
Width: 1510
VWidth: 0
GlyphClass: 2
Flags: W
LayerCount: 2
Fore
SplineSet
310 0 m 1
 512 0 l 1
 777 905 l 1
 734 905 l 1
 992 0 l 1
 1192 0 l 1
 1486 1058 l 1
 1287 1058 l 1
 1074 191 l 1
 1110 191 l 1
 870 1058 l 1
 653 1058 l 1
 409 191 l 1
 444 191 l 1
 237 1058 l 1
 24 1058 l 1
 310 0 l 1
EndSplineSet
EndChar

StartChar: x
Encoding: 120 120 578
Width: 1061
VWidth: 0
GlyphClass: 2
Flags: W
HStem: 0 21<16 252 252 252 796 1045 1045 1045> 1029 20
LayerCount: 2
Fore
SplineSet
16 0 m 1
 252 0 l 1
 536 425 l 1
 639 491 l 1
 1034 1058 l 1
 796 1058 l 1
 528 649 l 1
 423 579 l 1
 16 0 l 1
796 0 m 1
 1045 0 l 1
 283 1058 l 1
 36 1058 l 1
 796 0 l 1
EndSplineSet
EndChar

StartChar: y
Encoding: 121 121 579
Width: 1047
VWidth: 0
GlyphClass: 2
Flags: W
LayerCount: 2
Fore
SplineSet
481 -444 m 1
 1036 1058 l 1
 805 1058 l 1
 529 239 l 1
 575 239 l 1
 258 1058 l 1
 33 1058 l 1
 479 -30 l 1
 479 111 l 1
 279 -412 l 1
 481 -444 l 1
EndSplineSet
EndChar

StartChar: yen
Encoding: 165 165 583
Width: 1260
VWidth: 0
GlyphClass: 2
Flags: W
LayerCount: 2
Fore
SplineSet
1076 250 m 1
 1076 397 l 1
 679 397 l 1
 679 543 l 1
 1076 543 l 1
 1076 684 l 1
 193 684 l 1
 193 543 l 1
 591 543 l 1
 591 397 l 1
 192 397 l 1
 192 250 l 1
 1076 250 l 1
EndSplineSet
Refer: 135 89 N 1 0 0 1 0 0 2
EndChar

StartChar: z
Encoding: 122 122 585
Width: 889
VWidth: 0
GlyphClass: 2
Flags: W
LayerCount: 2
Fore
SplineSet
87 0 m 1
 836 0 l 1
 836 166 l 1
 282 166 l 1
 298 98 l 1
 823 904 l 1
 823 1058 l 1
 109 1058 l 1
 109 898 l 1
 646 898 l 1
 621 959 l 1
 87 140 l 1
 87 0 l 1
EndSplineSet
EndChar

StartChar: zero
Encoding: 48 48 589
Width: 1217
VWidth: 0
GlyphClass: 2
Flags: W
LayerCount: 2
Fore
SplineSet
611 180 m 0
 410 180 323 403 323 738 c 1
 324 1061 411 1280 611 1280 c 0
 812 1280 894 1071 894 736 c 0
 894 402 812 180 611 180 c 0
611 -20 m 0
 986 -20 1138 325 1138 730 c 0
 1138 1148 978 1480 611 1480 c 0
 246 1480 79 1150 79 730 c 0
 79 325 236 -20 611 -20 c 0
EndSplineSet
EndChar
